<svg xmlns="http://www.w3.org/2000/svg" viewBox="0 0 2100 2100"><title>carrot</title><g id="df48278f-0708-459c-95c3-8b1652803b53" data-name="Draw Layer"><path d="M1271.32,744.08q-25.6,0-51.22,0-50.53-.06-101.24,0h-2.48c-2,1-4.31,2.23-6.55,3.47-1.31.71-2.65,1.49-3.83,2.18l-.14.08-.46.27c-1.43.85-3,1.75-4.51,2.6l-3.74,2.06,42.76,0h98.86q24.7,0,49.41.07h8.56q13.44,0,26.88-.05h3l10.6,0,17.45,0h.83c10.86,0,22.1,0,33.13-.11,15.87-.11,28.08-.19,40.63-.23l4.92,0,30.38-.12h6.93c3.64,0,7.29,0,10.93-.05l4.19,0c1.92,0,3.91,0,5.9.05h.57q-3.36,9.51-6.74,19-1.55,4.31-3.11,8.6l-.84,2.34-.08.21c-3.52,9.7-6.44,17.77-9.34,25.93-.46,1.25-.91,2.5-1.35,3.76-4,11.11-7.9,22.17-11.84,33.27-1.47,4.1-2.92,8.2-4.38,12.31l-.06.17-1.5,4.21-1.08,3c-1.36,3.81-2.81,7.88-4.12,11.84a4.69,4.69,0,0,0-.21,1.42c-4.44,12.43-7.84,22-11.21,31.81-.06.25-.1.5-.14.77l-.16.43-1.17,3.29-4.31,12.1q-16.77,47.1-33.53,94.19-4.93,13.86-9.88,27.73l-7.57,21.23q-2.81,7.89-5.62,15.79l-.06.16-1.83,5.13q-2,5.58-4,11.17c-.39,1.1-.78,2.19-1.18,3.29l-.14.36-.05.14-.16.47c-.79,2.18-1.59,4.43-2.33,6.66a3.92,3.92,0,0,0-.16,1.77c-25.78,72.36-45.78,128.59-64.85,182.33l-20.38,57.47-.42,1.2-7.83,22.11-2.71,7.64-2.46,7-2.45,6.94-2.5,7.07-.58,1.62,0,.11c-.58,1.6-1.3,3.6-1.87,5.54a5.41,5.41,0,0,0-.16.82q-11.13,31.4-22.24,62.78l-.61,1.65-.15.41-1.71,4.82,0,0-.07.22-2.36,6.67q-6.13,17.34-12.26,34.68-3.81,10.79-7.61,21.57l-.75,2.14q-13.34,37.59-26.63,75.17l-8.47,24q-12.7,35.88-25.41,71.74-2.46,6.93-4.91,13.87l-.68,1.94-1.52,4.28-1.5,4.27q-4.3,12.18-8.61,24.35c-1.8,5.06-3.35,9.43-4.92,13.73l-.16.45-2.13,6,0,0h0l-.93,2.63q-4.4,12.32-8.77,24.63l-8.58,24.2,0,.13-.11.31-.8,2.28c-5.88,16.57-12.54,35.35-19,53.4h0l-1.62,4.53,0,0q-2.23,6.26-4.48,12.5c-2.3,6.41-5,13.88-7.53,21.34-1.47,4.33-3,8.65-4.65,13.23l-.48,1.38-1.88,5.29c-3.57,10.12-7.09,20.08-10.68,30.13l-.27.76-2.13,6.06v0s0,0,0,0l-1.89-5.31-1.26-3.6-1.26-3.6-1.55-4.39-3.95-11.2a3.86,3.86,0,0,0-.12-1.78c-5.06-14.65-10.37-29.46-15.51-43.78l-.25-.73,0-.11-.15-.42-3-8.49-1.92-5.49c-.81-2.27-1.63-4.54-2.44-6.8h0l-.24-.67-2.76-7.72q-2-5.91-4-11.81t-4-11.61l-1.2-3.48,0-.14c-3.47-10.07-7.79-22.6-12-34.64l-6.83-19.47-3.4-9.72-2.51-7.15,0-.23q-1-2.74-1.93-5.51h0q-9.39-26.8-18.82-53.59c-7.87-22.28-15.55-43.81-24.76-69.63l-1.29-3.71-2.74-7.67h-.05l-.61-1.7-3.06-8.57q-9.66-27-19.26-54.06l-1.62-4.55-.64-1.8-.69-1.94q-7.68-21.61-15.38-43.22c-4.48-12.56-10.31-28.93-16.27-45.87l-3.12-8.78h0q-7.68-21.7-15.34-43.42c-11.42-32.39-23.71-67.25-36.27-102.72l-4.75-13.5q-1.35-3.83-2.72-7.67h0q-11.26-31.73-22.58-63.45l-2.08-5.83-.42-1.19c-7.09-20-16.81-47.28-25.75-72.79l-3.31-9.41-1-2.84-.81-2.3q-2.82-8-5.62-16.13-.85-2.42-1.7-4.83h0q-8.31-23.6-16.62-47.17-4.47-12.69-8.93-25.36l-.12-.35c-5.6-15.91-12.57-35.69-19.21-54.44q-13-36.62-26-73.25h0l-2-5.48h0l-3-8.42q-7.56-21.2-15.15-42.4-3.56-9.9-7.1-19.82l-3.6-10.08-.47-1.32-.07-.19c-.38-1.08-.81-2.29-1.29-3.46a6.92,6.92,0,0,0-.43-1l-.09-.16c-.09-.15-.19-.29-.29-.43-.63-1.73-1.24-3.45-1.88-5.23-5.74-15.93-11.4-31.78-16.85-47.11l-1.29-3.65-.23-.63-.77-2.16c-2.08-5.86-4.17-11.72-6.22-17.59-1.23-3.51-2.46-7-3.72-10.52l-.13-.35,0-.27h0v0H653.5c19.09,0,34.43,0,48.26-.11h4.66l11.24,0h.16l5.89,0,10.82,0H735l15.82.05,30.75.09,9.95,0,13.44,0c40.59.13,82.19.21,125.62.28a35.93,35.93,0,0,1-4.26-3.73,44.06,44.06,0,0,1-3.5-4.14,27.05,27.05,0,0,1-2.78-2.52l-22.87,0q-57.19.12-114.34.28-25.12.06-50.28.17-12,.06-24.13.07c-7.76,0-15.46,0-23.21,0q-19.8,0-39.56,0H617l-4.88,0c-1.23,0-2.45,0-3.67-.07a4.93,4.93,0,0,0-2.46.66l-1,.77a4.78,4.78,0,0,0-1.25,2.14,5,5,0,0,0,0,2.59q.9,2.54,1.78,5.07,1.62,4.65,3.28,9.29c2.8,7.77,5.56,15.58,8.31,23.35q8,22.66,16,45.38,2,5.61,3.91,11.21a5.43,5.43,0,0,0,.18,1.13c.26,1,.63,1.91,1,2.86q1.07,3.06,2.15,6.12,2.19,6.24,4.4,12.5l9.14,26.07q9.72,27.72,19.55,55.41,19,53.7,38.12,107.39,18.71,52.4,37.43,104.82,18.46,51.63,36.72,103.36,1.61,4.51,3.2,9l1.71,4.87c3,8.55,6,17.12,9,25.66,3.21,9.08,6.46,18.16,9.68,27.23,12.21,34.46,24.53,69,36.84,103.51q17.45,48.81,34.67,97.76,9.19,26,18.33,52,9.38,26.49,18.73,53c10.77,30.58,21.46,61.19,32.34,91.67,11.29,31.62,22.65,63.36,34,95q9.28,25.79,18.69,51.59,2.73,7.49,5.49,14.94,5.87,16.74,11.77,33.48c5,14.12,9.91,28.26,15,42.34a5.14,5.14,0,0,0,1.24,2.08l.27.76q3.69,10.34,7.38,20.66l.49,1.38q2.79,7.89,5.59,15.76a4,4,0,0,0,1,1.79,4.07,4.07,0,0,0,4.92.64,4.24,4.24,0,0,0,1.86-2.43q9.56-26.86,19.12-53.72c1.33-3.71,2.63-7.42,3.95-11.13,1.14-3.21,2.34-6.39,3.49-9.59,3.35-9.27,6.56-18.62,9.82-27.91,12.92-36.8,26-73.56,39-110.34s26-73.27,39-109.85q19.33-54.58,38.73-109c1.31-3.69,2.62-7.37,3.93-11.07,1.82-5,3.59-10.1,5.4-15.15q5-14.1,10-28.22,10.32-28.93,20.58-57.9l15.68-44.16a6.38,6.38,0,0,0,.55-1.18c.69-1.67,1.27-3.4,1.88-5.1q1.23-3.42,2.45-6.84,2.47-7,5-14,5.28-14.87,10.55-29.72c6.67-18.79,13.36-37.65,20-56.45q20.1-56.73,40.18-113.55l25.73-72.86a4.81,4.81,0,0,0,1.2-2.07c1.08-2.87,2.06-5.78,3.08-8.66l4-11.21q3.74-10.62,7.49-21.26,8.63-24.42,17.21-48.77l33.32-94.35,6.15-17.44a4.89,4.89,0,0,0,.6-1.31c3.81-10.39,7.49-20.84,11.16-31.29a6.62,6.62,0,0,0,.92-1.75c1.65-4.35,3.16-8.75,4.72-13.12q2.94-8.25,5.85-16.52,6.23-17.6,12.43-35.2c.42-1.19.84-2.37,1.25-3.56,3.4-9.58,6.71-19.19,10-28.77.9-2.61,1.81-5.23,2.72-7.84l9.13-25.77a4.62,4.62,0,0,0-.47-3.63,4.76,4.76,0,0,0-4.08-2.34H1487q-3,0-6-.06c-7.27-.08-14.51,0-21.78-.07-15.38-.06-30.76-.07-46.17-.19-30.68-.24-61.37-.29-92.07-.34l-31,0Z" fill="#2c2c2c"/><path d="M1373.38,1136.89a1.48,1.48,0,1,0,1.48-1.48,1.49,1.49,0,0,0-1.48,1.48Z" fill="#2c2c2c"/><path d="M747.41,1134.65a2.35,2.35,0,0,0-.37.14l-.19.1a1.19,1.19,0,0,0-.23.16h-.07a4.74,4.74,0,0,0-1.25,0,1.63,1.63,0,0,0-1.09.36l-.19.16a1.83,1.83,0,0,0-.53,1.29,1.79,1.79,0,0,0,.53,1.27l0,0a1.67,1.67,0,0,0,1.26.51l.16,0,1.16,0,0,0,0,0h0l.16.1a2.28,2.28,0,0,0,1,.31,2.19,2.19,0,0,0,1.25-.28l.13-.07.12-.08h.07a1.49,1.49,0,0,0,.52-.07l1.69-.07h.4v0h0v0h7.27a7.38,7.38,0,0,0,.82,0,6.27,6.27,0,0,1,.75,0h2l8.34,0h1.2c3.11,0,6.23.05,9.34.05l4.35,0h24.17c6.4,0,12.81,0,19.22.06h6.37c11.23,0,22.44.07,33.76.08h.47l17.19,0H915l13.28,0h.37l13.64,0q27.87,0,55.72.1,14.7,0,29.38,0h27.44l21.57,0H1082l28.63,0h7.22c21.58,0,37.63,0,52-.07l17-.07,4.36,0,23.17-.09,11.44,0h2.1c11.08,0,22.54-.06,33.79-.15q7.82,0,15.61-.12l3,0,2.42,0h.82c8.24-.08,16.75-.15,25.09-.19h3.7c2.47,0,4.93,0,7.4,0,.79,0,1.58,0,2.41,0l2.08,0q3.18,0,6.36,0h23.52a1.06,1.06,0,0,0,0-2.11h-13.59q-7.18,0-14.36,0c-1.75,0-3.5,0-5.25-.08-1.47,0-2.94,0-4.41,0h-3.63l-13.64-.06c-3.32,0-6.64,0-10-.07l-2,0h-1.72c-2,0-4,0-6.14-.06h-.11l-8-.07c-9.82-.12-19.72-.15-27.25-.16l-40.83-.15c-22.62-.1-46.71-.19-70.75-.21h-29.41l-12.7,0-16,0-13.73,0h-43.54l-28.18.07-14,0-14,0-20.86,0H923.27l-12.88,0h-17q-15.21,0-30.43,0l-21.58.07h-.19q-11.46,0-22.94.09H797.72l-7.15,0H778.5l-5.89,0-4,0-2.19,0-3.72,0h-1.29l-1.73,0h-.34c-.56,0-1.12,0-1.69,0h-.59c-.76,0-1.52,0-2.29,0h-3.15l-.47,0-.38,0v0l-.81,0a1.49,1.49,0,0,0-.52-.07h-.07l-.2-.12a2.3,2.3,0,0,0-.88-.3l-.3,0a2.47,2.47,0,0,0-.6.08Z" fill="#2c2c2c"/><path d="M670,929.36h-.34a2.59,2.59,0,0,0-1.11.65,2.53,2.53,0,0,0-.75,1.79,2.58,2.58,0,0,0,.35,1.27,2.41,2.41,0,0,0,1.51,1.16H670a2.87,2.87,0,0,0,1.8.6h.36a10.2,10.2,0,0,0,1.82-.13l1.09,0a2.32,2.32,0,0,0,.83-.12c1.23,0,2.46,0,3.69,0h.3l.11,0,4.67,0H686c2.23,0,4.46,0,6.73.05h5.4l2,0q6.45,0,12.9,0h24.25q27.78,0,55.55.08,9.55,0,19.12,0h48.3l14.28,0q8.64,0,17.27,0h1.83q17.28,0,34.56-.06l13.8,0,5.26,0c16.4-.05,33.22-.11,49.8-.13l12,0H1012q8.64,0,17.29,0h33.36q45.65,0,91.31-.1h.23l15.83,0,15.84,0,15.83,0h15.67q20.57,0,41.11-.08h6.27l6.28,0h1c13.33,0,27.11-.05,40.65-.27l8.2-.06h.89l3.73,0,7.72-.09,1.39,0,1.38,0,1.4,0,1.4,0c5.85-.06,11.7-.09,17.56-.12H1361l5.93,0c18.23-.13,37.72-.24,56.7-.24a1.47,1.47,0,1,0,0-2.94c-10.43,0-21.57,0-34.05-.11l-16.49-.1h-.46l-16.86-.1-5,0c-3.61,0-7.23,0-10.84-.07l-4,0h-.11l-2.07,0-1,0c-2.92,0-5.83-.08-8.75-.09l-2.61,0H1321c-4,0-8-.05-12.07-.12-3.84-.09-7.67-.1-12.28-.11h-4c-26.48-.11-53.44-.14-79.5-.18h-3.81q-26.36,0-52.71-.08-22.14-.06-44.29-.08H1105l-17.38,0h-45.5l-21.63,0q-14.74,0-29.49-.05h-.31q-18.63,0-37.26-.08l-8.12,0c-15.3-.07-33.09-.14-50.58-.14H880.58q-21.66.06-43.32.07H760.34l-5.45,0q-12.61,0-25.22,0h-15c-6.52,0-13.08,0-19.49.07l-3.82,0-6.34,0-5.44,0h-1.07l-.6,0v0h-2.07a5.71,5.71,0,0,0-1.31-.13,7.33,7.33,0,0,1-1.48-.12l-1,0h-.31a2.88,2.88,0,0,0-1.71.59Z" fill="#2c2c2c"/><path d="M800.66,1313.71a2.26,2.26,0,0,0-1.29.84,2,2,0,0,0-.33.53,1.71,1.71,0,0,0,0,1.81,2.3,2.3,0,0,0,.5.74l.14.13a2.13,2.13,0,0,0,1.23.54,2.08,2.08,0,0,0,.61,0c1.54,0,3.08,0,4.62,0h3.57c1,0,2,0,3.07,0a2.3,2.3,0,0,0,.9-.18h2v0h0v0l3.07,0h35.54l32.89,0h.34l13.22,0q31.17,0,62.36-.06l31.17,0c35,0,66.66-.08,94.12-.16l56.54-.18,36.31-.13q27.57-.09,55.14-.26c17.71-.1,34.7-.1,55.06-.1a1.1,1.1,0,1,0,0-2.2c-12.42,0-28.82,0-45.58-.07l-18.52-.1H1227l-4.69,0h-.18l-23.28-.11-21.22-.07h-4.87l-10.28,0-10.28,0-13.94-.07h-3.61c-9.69,0-19.37-.09-29.06-.1l-24.64-.06-6.87,0q-31.1-.06-62.2-.11l-32.69,0H955.7l-37.14,0L891,1314l-27.56,0-19.93,0h-21l-3.38,0h-3.5l-1.56,0h-.42a2.5,2.5,0,0,0-.9-.19c-1-.06-2,0-3.07,0h-3.57c-1.53,0-3.07,0-4.61,0a2.09,2.09,0,0,0-.35,0,2.25,2.25,0,0,0-.52.07Z" fill="#2c2c2c"/><path d="M894.43,1481.09l-5.6,0h-9.45l-1,0h-.87c-.53,0-1.09,0-1.79.07h0l-.2,0,.18,0h-.47a7.32,7.32,0,0,0-.81,0h-.17c-.26,0-.52,0-.79,0l-.2,0v0h0l-.18,0-.49.07-.27,0a3,3,0,0,0-1.3.75,2.69,2.69,0,0,0-.27.32h0v0a2.69,2.69,0,0,0-.47,1,2.78,2.78,0,0,0-.11.63v.15a2.88,2.88,0,0,0,.06.59,0,0,0,0,0,0,0,0,0,0,0,0,0,0,.07.07,0,0,0,0,0v0a3.19,3.19,0,0,0,.31.77,3.1,3.1,0,0,0,.18.26h0l0,0,0,0,0,0,0,0a2.54,2.54,0,0,0,1.49,1l.18,0a4.68,4.68,0,0,0,.54.08l.22,0h.08c.47,0,.93.06,1.39.06l.72,0v0h0v0h.24a2.06,2.06,0,0,1,.55.06h.06l-.09,0h.06l-.06,0c.24,0,.47.05.71.06h.38l.8,0h.74l1.12,0,1.13,0h5.89l4.4,0,6.36,0h17.88l5,0h.25c2.8,0,5.59,0,8.39,0h6.67c5.12,0,10.22,0,15.41,0h11.4q16.46,0,32.9-.09,8.59,0,17.21-.11l4.86,0,4.82,0,4.88,0q12.8-.06,25.65-.06h8l40.18,0h9.23l17.65,0h4.33c15.87,0,32.28,0,48.41-.16,17.76-.13,34.88-.19,52.36-.19a2.31,2.31,0,0,0,.83-.15h0l0,0a2.33,2.33,0,0,0,1.44-2.13,2.38,2.38,0,0,0-.31-1.15v0a2.3,2.3,0,0,0-2-1.13c-9.35,0-21.65,0-33.86-.05l-8.54-.06-2.87,0-2.9,0-2.83,0-3,0-2.34,0-2.33,0-7,0c-16.54-.09-33.44-.09-49.85-.1H1079c-17.09,0-31.37,0-45.51-.07h-4.07c-9.29,0-18.89-.07-28.33-.17-7.51-.09-15-.1-24.75-.1h-7.82q-9.21,0-18.43,0h-4.05q-13.92,0-27.85-.06l-9.34,0q-7.22,0-14.43.06Z" fill="#2c2c2c"/><path d="M922.24,1651.75a3.82,3.82,0,1,0,3.85,6.6l.06,0h0c3.41.09,6.81.12,10.21.12v0h0v0h.7l5.36,0h7.4q6.82,0,13.66,0,7.25,0,14.49,0c10.17,0,20.49-.13,30.48-.22h.3l2.34,0q12.74-.12,25.49-.19,10.94-.06,21.87-.08h4.42q16.13,0,32.27-.12h2.18c18.82-.11,38.28-.22,57.43-.22H1166a2.44,2.44,0,0,0,0-4.88c-22.94,0-46.27-.11-68.83-.22h-.57l-4.16,0q-22.65-.11-45.29-.16c-12.62,0-25.48-.15-38-.26h-.4l-20-.16c-8.48-.07-16.56-.1-24.05-.1h-4.89l-8.12,0q-7.08,0-14.17,0h-3.24l-.42,0v0c-2.59,0-5.17,0-7.76.1h0l-.06,0a3.62,3.62,0,0,0-1.9-.52,3.9,3.9,0,0,0-2,.52Z" fill="#2c2c2c"/><path d="M986.68,1786.16c-.54,0-1.08,0-1.65.07h-.34l-1.32.06h-1.79l-1.88,0c-.53,0-1,.11-1.57.12l-1.7,0c-.79,0-1.61,0-2.41-.12a2.63,2.63,0,0,0-.47,0,2.59,2.59,0,0,0-1.84.72h0l0,0a2.61,2.61,0,0,0-.46.58,2.8,2.8,0,0,0-.36,1.55v0s0,0,0,.07v0s0,0,0,.06h0a2.78,2.78,0,0,0,.34,1,2.67,2.67,0,0,0,2.34,1.34h0a2.28,2.28,0,0,0,.45,0c1.2-.09,2.41-.11,3.62-.09.45,0,.89,0,1.33.06s.76.07,1.15.09l3.25.07h.18v0c.83,0,1.66.06,2.48.09l2.46.1c1.81.06,3.62.08,5.42.1s3.45,0,5.18,0c3.3,0,6.6,0,9.89,0,2.51,0,5,0,7.54-.06h1.9c13.23,0,29.7-.1,45.4-.26l15.53-.16,15.54-.17c9.23-.08,17.86-.13,26.41-.13,1.31,0,2.64,0,4,0h.75a2.26,2.26,0,0,0,1.39-4v0h0v0a2.23,2.23,0,0,0-1.48-.56c-7.21,0-15.62,0-24-.08l-8.39-.08-15.12-.15c-17-.21-32.54-.34-47.38-.38l-24.35-.11h-1.24l-5.1,0H998.6c-4,0-8,.06-11.92.18Z" fill="#2c2c2c"/><path d="M1020.05,1898.45h-4.12l-3.66,0c-.47,0-.95,0-1.42,0-.89,0-1.78,0-2.66,0a2.38,2.38,0,0,0-1.65.58,2.09,2.09,0,0,0-.22.2,2.64,2.64,0,0,0,0,3.73l.15.14a2.34,2.34,0,0,0,1.72.63c.79.06,1.59,0,2.39,0l1.23,0,3.69,0h7.11v0h0v0H1036l7,0,3.57,0c4.56,0,9.12-.09,13.68-.14l6.85-.08c5.87-.06,12.11-.09,19.1-.09l0,0h2.36a2.3,2.3,0,0,0,0-4.6h-.72a.09.09,0,0,0,0,.05h-.16c-6.57,0-13.36,0-20.11-.09l-5.72-.06-2.18,0q-6.56-.07-13.11-.13l-10.22-.08-2.81,0h-9.81l-3.06,0h-.59Z" fill="#2c2c2c"/><path d="M701.75,754.06c-13.83.06-29.16.1-48.25.11H615.31l.06.32.13.35c1.25,3.5,2.48,7,3.72,10.52q3.07,8.79,6.21,17.59l.77,2.16.23.63,1.3,3.64c5.44,15.34,11.11,31.19,16.84,47.12l1.88,5.22c.11.15.2.29.29.44l.09.16a5.91,5.91,0,0,1,.44,1c.47,1.18.9,2.39,1.28,3.46l.07.2.47,1.32,3.6,10.07,7.1,19.83q7.61,21.18,15.15,42.4l3,8.42.61,0h1.07l5.45,0c2.11,0,4.22,0,6.33,0l3.83,0c6.4,0,13-.07,19.48-.07h15q12.62,0,25.22,0h16.17l10,0h7l27.93,0h21.25q21.66,0,43.32-.06h14.18c17.49,0,35.28.08,50.58.15l8.12,0q18.63.07,37.26.08H991q14.75,0,29.49.05,10.82,0,21.63,0h45.5l17.38,0h7.38q22.15,0,44.29.08l52.71.09h3.81c26.07,0,53,.07,79.5.18h4c4.61,0,8.44,0,12.28.1,4,.08,8.11.1,12.07.13h3.09c2.92,0,5.84,0,8.75.09l1,0,2.07,0h.11l4,0,10.84.07,5,0,16.86.1h.47l16.48.1c12.48.07,23.62.1,34.05.1a1.47,1.47,0,1,1,0,2.94c-19,0-38.47.12-56.7.25l-5.93,0h-4.74c-5.86,0-11.71,0-17.56.12l-1.4,0-1.4,0h-1.38l-1.39,0c-2.62,0-5.17.08-7.71.1l-3.74,0h-.89c-2.73,0-5.46,0-8.19.06-13.55.21-27.33.24-40.66.27h-13.54q-20.55.07-41.11.09h-15.67l-15.83,0-15.84,0-15.83,0h-.24q-45.65.06-91.3.09h-33.36q-8.65,0-17.29,0H1009l-12,0c-16.58,0-33.4.07-49.8.13l-5.26,0-13.8,0q-17.28.06-34.55.07h-1.84c-5.76,0-11.52,0-17.27,0l-14.28,0h-48.3q-9.57,0-19.12,0-27.78-.07-55.55-.08H713q-6.45,0-12.9-.05h-7.44c-2.27,0-4.5,0-6.73-.05H684.7l-4.68,0-.11,0q13,36.65,26,73.26c6.65,18.75,13.61,38.53,19.21,54.43l.12.36,8.93,25.35q8.33,23.58,16.62,47.17l.38,0,.47,0h3.16c.76,0,1.52,0,2.28,0h.59l1.7,0h.33l1.74,0h1.28l3.72,0h2.19l4,0,5.89,0h39.73l22.94-.08h.19l21.58-.08q15.21,0,30.43,0h30.11l9.42,0h7.26l20.86,0,14,0,14,0,28.18-.06h43.54l13.73,0,16,0,12.7,0h15.75l10,0h3.68c24,0,48.13.11,70.75.21l40.84.14c7.52,0,17.42,0,27.24.16,2.65,0,5.31.05,8,.07h.12l6.13.06h1.72l2,0,10,.08,13.64.05h3.63c1.47,0,2.94,0,4.41,0,1.75,0,3.5.07,5.26.09q7.17,0,14.35,0h13.59a1.06,1.06,0,0,1,0,2.11h-10.5l-13,0c-2.12,0-4.24,0-6.36,0l-2.08,0-2.41,0c-2.47,0-4.93,0-7.39,0h-3.7c-8.35,0-16.86.11-25.1.19h-.81l-2.43,0-3,0c-5.2,0-10.4.09-15.61.12-11.25.08-22.71.11-33.79.14h-2.1l-11.44,0-23.17.1-4.36,0-17,.07c-14.4,0-30.45.07-52,.07h-7.22l-28.62,0h-5.62l-21.57,0h-27.44q-14.68,0-29.37,0-27.87-.07-55.73-.11l-13.64,0h-.37l-13.28,0H887.3l-17.19,0h-.47c-11.32,0-22.53,0-33.76-.09H829.5q-9.6,0-19.21-.06H786.12l-4.35,0c-3.11,0-6.23,0-9.34-.05h-1.2l-8.34-.06h-2a6.27,6.27,0,0,0-.75,0,7.31,7.31,0,0,1-.82,0h-2.09c-1,0-1.91,0-2.87,0h-2.31c2,5.87,4.06,11.7,6.1,17.52l.8,2.3,1,2.83,3.3,9.42c9,25.51,18.66,52.84,25.76,72.79l.42,1.18,2.07,5.84q11.31,31.71,22.58,63.45l1.56,0h47.81l27.55,0,27.54,0,37.14,0h23.51q16.35,0,32.69,0,31.11,0,62.2.11H1081l24.64.06q14.54,0,29.06.1l3.62,0,13.93.06,10.28,0,10.28,0h4.87l21.22.07,23.28.12h.18l4.69,0h.26l18.52.09c16.76.06,33.17.07,45.58.07a1.1,1.1,0,1,1,0,2.2c-20.37,0-37.36,0-55.06.11q-27.55.15-55.14.26l-36.31.13-56.54.18c-27.46.07-59.13.13-94.11.15l-31.18,0q-31.18,0-62.36.06l-13.22,0h-.34q-16.46,0-32.89,0h-38.6l6,17c12.56,35.47,24.86,70.33,36.27,102.71q7.65,21.72,15.35,43.42l.2,0c.27,0,.53,0,.79,0h.17a7.34,7.34,0,0,1,.81,0h.53c.7,0,1.26-.07,1.79-.07h.87l1,0h9.46l5.6,0q7.22-.06,14.43,0c3.12,0,6.23,0,9.34,0q13.92,0,27.85.06h4.05l18.43,0h7.82c9.76,0,17.24,0,24.75.1,9.44.11,19,.14,28.33.18h1.48l2.59,0c14.14,0,28.42.06,45.5.06h38.62c16.41,0,33.31,0,49.85.1l7,0,2.33,0,2.34,0,3,0,2.83,0,2.9,0,2.87,0,8.54,0c12.21.05,24.51.06,33.86.06a2.28,2.28,0,0,1,2,1.13l1.36-3.66q11.1-31.39,22.24-62.78a5.4,5.4,0,0,1,.15-.82c.58-2,1.29-3.94,1.87-5.55l0-.1.58-1.62,2.49-7.07,2.46-7,2.46-6.94,2.7-7.64,7.84-22.11.42-1.2,20.38-57.48c19.07-53.73,39.07-110,64.84-182.33a4,4,0,0,1,.16-1.76c.74-2.23,1.55-4.48,2.33-6.66l.17-.48.05-.14.13-.36c.4-1.09.8-2.19,1.18-3.28l4-11.18,1.83-5.13,0-.15q2.82-7.89,5.63-15.8l7.57-21.22q4.93-13.86,9.87-27.73l33.54-94.19,4.3-12.1,1.18-3.29.15-.43a6.17,6.17,0,0,1,.15-.77c3.36-9.82,6.77-19.38,11.2-31.81a4.4,4.4,0,0,1,.22-1.42c1.31-4,2.75-8,4.12-11.84l1.08-3,1.5-4.22.06-.17q2.17-6.15,4.37-12.3c4-11.1,7.88-22.16,11.85-33.28.44-1.25.89-2.5,1.34-3.75,2.9-8.17,5.82-16.23,9.34-25.93l.08-.22.85-2.33,3.11-8.6q3.38-9.5,6.74-19c-2.18-.06-4.37-.06-6.48-.06l-4.18,0c-3.65,0-7.29,0-10.94.05h-6.93q-15.18.07-30.38.12l-4.91,0c-12.56,0-24.76.12-40.63.23-11,.08-22.27.1-33.14.11h-.82l-17.45,0-10.6,0h-3q-13.44,0-26.88.05h-8.56q-24.71-.06-49.41-.07H1139.9l-42.75,0c-3.32,1.86-6.33,3.63-9.33,5.57l-1.35.89-.16.1-.29.2-.35.22-.12.08c-1.45.95-3,1.92-4.46,2.83-1,.64-2.13,1.26-3.36,1.89l-.53.4c-1,.78-2.41,1.79-4,2.73a71.51,71.51,0,0,1-9.87,4.85,110,110,0,0,1-13.68,4.58,63.74,63.74,0,0,1-7.19,1.35h-.1l-.82.12c-3,.43-6.44.91-9.72,1.1l-1.85.1-1,.05h-.24l-.47.11-.47.12c-.51.11-1,.18-1.53.25l-.75.1c-.93.14-2.35.36-3.77.52l-.55.06c-1.12.13-2.25.26-3.37.35-2.84.24-5.4.45-8,.49H1009l-2.34,0c-1.1,0-2.08,0-3.07-.08-2.08-.13-4.28-.37-7.13-.76l-.77-.11-.28,0c-1-.15-2-.3-3.06-.52l-2.38-.53-2.41-.53c-.88-.2-1.81-.51-2.63-.78l-1.26-.41a75,75,0,0,1-8.38-3.32l-.11,0-.1,0-.76-.34c-2.79-.42-5.25-.85-7.51-1.31l-.89-.18c-.68-.13-1.46-.29-2.21-.48a39.21,39.21,0,0,1-5.54-2c-1.27-.55-2.56-1.2-4.06-2l-1.14-.64-.09-.05c-1.56-.85-3.69-2-5.56-3.26-1.49-1-2.93-2.06-4.32-3.12l-.14-.11c-.58-.45-1.08-.83-1.62-1.18a7.31,7.31,0,0,1-3.76-1,7.6,7.6,0,0,1-3.24-3.81c-1.34-.86-2.54-1.69-3.63-2.51-43.43-.07-85-.15-125.62-.28l-13.44,0-10,0-30.74-.09L735,754.15h-.51l-10.83,0-5.88,0h-.16l-11.24,0Z" fill="#ffb03b"/><path d="M1234,1486.25h0a2.31,2.31,0,0,1-.83.15c-17.48,0-34.6.06-52.36.19-16.13.12-32.54.14-48.41.16h-4.33l-17.65,0h-9.23l-40.18,0h-8q-12.87,0-25.65.06l-4.88,0-4.82,0-4.86,0q-8.61.08-17.21.11-16.46.08-32.9.09h-11.4l-15.41,0H929.2c-2.8,0-5.59,0-8.39,0h-.25l-5,0H897.66l-6.36,0-4.4,0H881l-1.13,0-1.12,0H878l-.8,0h-.38c-.24,0-.47,0-.7-.06l.15.09a1.78,1.78,0,0,0-.68-.1h-.24c6.32,18,12.56,35.49,17.3,48.76q7.7,21.6,15.38,43.22l.69,2,.63,1.79,1.62,4.56q9.62,27,19.27,54l3.06,8.58.61,1.7.42,0h3.24c4.73,0,9.45,0,14.17,0l8.12,0h4.89c7.49,0,15.57,0,24.05.1q10,.06,20,.16h.4c12.51.11,25.38.22,38,.25q22.63.06,45.29.17l4.16,0h.57c22.56.11,45.89.22,68.83.22a2.44,2.44,0,1,1,0,4.88h-11.27c-19.14,0-38.61.12-57.43.23h-2.18c-10.76.07-21.52.09-32.27.12l-4.42,0-21.87.07q-12.74.06-25.49.19l-2.34,0h-.3c-10,.09-20.31.19-30.48.22q-7.25,0-14.49,0-6.84,0-13.66,0h-7.4l-5.36,0h-.7l1.64,4.7c9.21,25.83,16.88,47.35,24.75,69.63q9.45,26.77,18.82,53.59h1.79l1.32-.06.34,0,1.65-.07c3.91-.11,7.92-.17,11.92-.17h1.71l5.11,0h1.24l24.35.11c14.84.05,30.34.17,47.38.38l15.12.15,8.39.08c8.42.07,16.82.08,24,.08a2.23,2.23,0,0,1,1.48.56c1.88-5.12,3.69-10.18,5.82-16.21q4.32-12.18,8.62-24.36l1.5-4.27,1.52-4.28.68-1.93,4.91-13.88q12.72-35.87,25.4-71.73l8.48-24q13.29-37.59,26.63-75.17l.75-2.14,7.6-21.57,12.27-34.68,2.36-6.67.07-.22,0,0Z" fill="#ffb03b"/><path d="M1121.3,1791.27c-8.55,0-17.19,0-26.41.13l-15.54.17-15.53.16c-15.7.15-32.17.21-45.4.26h-1.9c-2.51,0-5,0-7.54.06q-4.93,0-9.89,0l-5.18,0c-1.8,0-3.61,0-5.41-.11l-2.47-.09-2.48-.1,0,.27,2.5,7.15,3.41,9.72,6.83,19.47c4.22,12,8.54,24.57,12,34.64l0,.14,1.2,3.48,4,11.61q2,5.91,4,11.81l2.77,7.73.24.66,3.06,0h12.62c3.4,0,6.81,0,10.21.09q6.57,0,13.12.13l2.18,0,5.72.06c6.75.07,13.54.08,20.11.09h.16c6.47-18.05,13.13-36.83,19-53.4l.8-2.28.11-.31,0-.12,8.58-24.2q4.38-12.33,8.77-24.64l.93-2.62c-1.64,0-3.22,0-4.77,0Z" fill="#ffb03b"/><path d="M1086.17,1903.4c-7,0-13.23,0-19.1.09l-6.85.08q-6.84.09-13.68.15l-3.57,0-7,0H1022.6l2.44,7,3,8.48.15.43,0,.1.27.73c5.13,14.33,10.44,29.14,15.5,43.78a3.87,3.87,0,0,1,.12,1.78l3.95,11.2,1.55,4.39,1.26,3.6,1.26,3.6,1.89,5.31c4.44-12.38,8.74-24.55,13.12-37l1.88-5.29.49-1.38c1.62-4.57,3.16-8.89,4.64-13.23,2.56-7.46,5.23-14.93,7.53-21.34l4.49-12.5,0-.06Z" fill="#ffb03b"/><path d="M1103.45,137.16a8.94,8.94,0,0,0-2.32.32l-.68.16-.65.15c-1.11.46-2.21.93-3.3,1.42a11.79,11.79,0,0,0-2.32,1.47,19,19,0,0,0-2.8,2.36,19.87,19.87,0,0,0-2.49,3.13l-.2.29-.25.35c-.28.4-.55.79-.81,1.2-.79,1.26-1.55,2.53-2.3,3.82-1.09,1.87-2.16,3.76-3.23,5.65l-.2.36-.79,1.41-2.86,5q-3.16,5.57-6.31,11.14c-3,5.39-5.92,10.78-8.72,16l-.18.35-.94,1.75c-2.32,4.31-4.63,9-6.16,12.14-.89,1.81-1.78,3.63-2.68,5.44-2,4.09-4.07,8.54-5.69,12.11-.75,1.67-1.5,3.32-2.26,5-1.88,4.07-4,8.75-6.61,14.74-6.45,14.65-12.62,29-16.7,38.57l-2.53,5.92q-5.69,13.28-11.38,26.55c-3.05,7.07-6.33,14.39-8.72,19.74l-.18.42c-1.77,3.95-3.53,7.89-5.27,11.85q-1.89,4.28-3.8,8.56c-3.71,8.36-7.93,17.83-11.75,27.11q-1.75,4.26-3.53,8.51l0,.1,0,.09c-3.67,8.81-7.47,17.92-10.85,27l-8.4,22.46-.79,2.14c-1.36,3.64-2.62,7.37-3.84,11l-.11.33-.33,1-8,23.7c-1.22,3.62-2.36,7.56-3.12,10.17l0,.15c-.4,1.36-.79,2.72-1.2,4.08l-2,6.48-1.28,4.28-2.58,8.62c-.43,1.39-.81,2.82-1.18,4.21l0,.12,0,.12-.27,1-.28,1-3.81,13.91c-2.58,9.41-5,18.93-7.34,28.13l0,.2-.19.76-.08.33-1.62,6.36c-.31,1.19-.57,2.39-.88,3.83l-.06.21-.14.65-.23,1.09,0,.24-.09.39-1,4.49-.05.19q-1,4.38-2,8.77l-.81,3.53-.76,3.39c-.41,1.8-.71,3.6-1,5.5l-.09.54c-.13.75-.26,1.51-.4,2.26-.77,4.3-1.54,8.5-2.31,12.71-.59,3.3-1.14,6.73-1.66,10.48-1.29-6.11-2.7-11.84-4.15-17l-.69-2.51-.46-1.66c-.27-1-.65-2-1-2.88-.18-.47-.36-.93-.52-1.4l-.24-.71-.12-.35c-.26-.78-.52-1.58-.84-2.34l-.4-.95-2-4.74c-2.38-5.67-5.09-11.31-7.7-16.76l-.87-1.8c-2.82-5.88-5.74-11.57-8.22-16.36-1.23-2.4-2.46-4.66-3.75-6.93-.45-.79-.89-1.58-1.33-2.37-1.09-2-2.18-3.93-3.35-5.76l-3.75-5.89-2.2-3.46c-1.1-1.74-2.33-3.46-3.52-5.12l-.13-.19-.24-.33-1.5-2.12c-1.28-1.84-2.65-3.74-4.19-5.8-.69-.91-1.37-1.82-2-2.75l-.11-.15c-1.27-1.71-3-4.06-4.7-6.15l-3.43-4.26L840.9,501c-1.41-1.75-3-3.53-4.34-5.06l-1-1.2c-.55-.62-1.1-1.26-1.64-1.9-1-1.21-2.32-2.72-3.64-4.08l-4.3-4.41-4.31-4.42c-1.41-1.44-2.92-2.81-4.13-3.92l-.09-.08-1-.91c-.61-.54-1.2-1.1-1.8-1.66l-.34-.32-.18-.17-.09-.08c-1.44-1.35-2.93-2.74-4.49-4l-8.71-7.23c-2.12-1.75-4.38-3.48-6.2-4.86l-.14-.12-.8-.61-7.93-6.05c-1.92-1.45-3.94-2.83-5.72-4.05-1-.65-1.91-1.3-2.85-2-4.51-3.18-9.23-6.22-13.4-8.91l-.15-.1-2.43-1.57c-3.79-2.46-7.8-4.82-11-6.72l-1-.6-3.48-2.07c-1.66-1-3.47-2-4.93-2.78l-.18-.1-.66-.37-.31-.17-.31-.17-.29-.16-1-.55-1.08-.61-1.09-.61c-1.58-.9-3.39-1.92-5.15-2.87l-4-2.13-.14-.08-.28-.15c-9.58-5.15-19.48-10.47-29.44-15.26l-7.14-3.45-3.57-1.72c-1.61-.77-3.22-1.44-5-2.17l-.61-.25-1.54-.65-5-2.11-4.42-1.87c-2.61-1.1-5.26-2-7.82-2.92l-.5-.17-1.69-.59-5.88-2.08-.73-.27c-.52-.19-1-.36-1.45-.5l-10.8-3.2-1.7-.51c-1.3-.4-3-.93-4.69-1.35l-12.46-3.17c-12.31-3.13-24.81-5.56-36.9-7.91l-.64-.12c-3.81-.75-7.54-1.41-12-2.2l-.27,0-5.61-1-5.17-.95-1.31-.25-.15,0-.35-.06-.34-.06c-3-.56-6.34-1.19-9.62-1.74l-4.81-.84c-4.46-.79-9.51-1.68-14.52-2.3l-.4,0-.19,0-11.45-1.43-3-.38a25.19,25.19,0,0,0-2.67-.17h-.15c-.46,0-.93,0-1.38-.05l-10.09-.54-.52,0c-.23,0-.46,0-.7,0l-1.21,0-.85,0-3.86.06-3.79.06c-2.45,0-5.05.16-7.28.28l-3,.13h-.62c-1.93.09-3.92.17-5.86.37l-5.63.55-5.63.54c-2.68.26-5.44.71-7.66,1.08l-.5.08-1.9.31-1.28.2-.11,0c-1.8.27-4,.61-6.17,1.09l-3.23.73-3.13.7-1.29.27c-.81.16-1.76.35-2.66.62l-3.8,1.11-6.49,1.89a144.24,144.24,0,0,0-20,7.87A72,72,0,0,0,383.92,382l-.62.68-.65.7c-.88,1.11-1.75,2.22-2.61,3.35l-.66,1-.4.64c-.64,1.37-1.24,2.74-1.77,4.05a29.11,29.11,0,0,0-.79,5.25c.14,1.13.3,2.34.5,3.61.44,1.18.9,2.29,1.36,3.28.8,1.08,1.71,2.24,2.69,3.45a20.4,20.4,0,0,0,3.68,2.56,17.33,17.33,0,0,0,5.81,1.86,62.86,62.86,0,0,0,10.1.72H402c2.16,0,4.39-.05,6.35-.09h.92l2.8-.06h.16c2.42-.05,4.92-.07,7.42-.07,6,0,11.87.13,17.47.4,7.77.36,16,.92,26,1.76,7.54.63,15.47,1.64,21.84,2.46l.5.06c14.24,2.16,25.9,4,36.7,5.94s22.2,4,31.32,5.76l.3.05.76.14,6.28,1.18q18.8,3.54,37.55,7.1c4.55.87,9.14,1.82,13.08,2.65l4,.83c2.27.86,4.71,1.84,7.69,3.08,12,5.1,22,9.24,31.48,13,9.95,3.95,20.13,7.17,29.71,10.12,5.55,1.71,10.77,3.8,15.6,5.81,3.42,1.5,7,3.24,11.74,5.64a104.76,104.76,0,0,1,11.7,7.25c1.86,1.3,3.7,2.62,5.58,4l.6.43.62.45.87.62,3.53,2.51L737,495.9l.42.31.19.13c1.86,1.31,4.17,2.93,6.36,4.56l4.84,3.91,6.58,5.32c3.8,3,7.71,6,11.49,8.92l.1.08.25.19.8.61c7.24,5.8,14,12.34,20.57,18.66l.13.12,1.89,1.83q2.34,2.25,4.66,4.53l.57.56.43.41q3.06,3,6.16,6c3.68,3.51,7.57,7.29,11.14,11.18q3.72,4,7.46,8.09c3.1,3.36,6.15,6.65,9.18,10,2.48,2.7,5.07,5.46,7.51,8.06l.15.16.64.68c2,2.13,4.05,4.54,6.63,7.82,3.66,4.88,6.32,8.63,8.61,12.16,3,4.68,5.87,9.35,8.29,13.36.56.93,1.13,1.86,1.7,2.79l.78,1.28.35.57.15.25.18.29.12.19c1.76,2.88,3.59,5.86,5.28,8.83,1.28,2.23,2.46,4.51,3.6,6.72l.08.15.21.39c1.13,2.24,2.35,4.6,3.63,6.85l.06.11.09.17c2.39,4.21,4.86,8.57,7.05,13,2.31,4.71,4.3,9,6.1,13.13,4.38,10.81,8,20.4,11.24,29.31l.65,1.83c1.32,3.68,3.12,8.73,5,13.48l.42,1.09c1.89,4.92,3.86,10,6.87,14.57a34.1,34.1,0,0,0,7.27,8.24,44.06,44.06,0,0,0,3.5,4.14,43,43,0,0,0,7.89,6.24,7.6,7.6,0,0,0,3.24,3.81,7.31,7.31,0,0,0,3.76,1c.54.35,1,.73,1.62,1.18l.14.11c1.39,1.06,2.83,2.16,4.32,3.12,1.88,1.23,4,2.4,5.56,3.27l.09,0,1.14.64a43.77,43.77,0,0,0,4.06,2,39.21,39.21,0,0,0,5.54,2c.75.19,1.53.34,2.21.48l.89.18c2.26.46,4.72.89,7.51,1.31l.76.35.1,0,.11,0a74.21,74.21,0,0,0,8.38,3.32l1.26.41c.82.27,1.75.58,2.64.78l2.4.53,2.38.53c1,.23,2,.37,3.06.52l.27,0,.78.11c2.85.4,5,.63,7.13.76,1,.06,2,.08,3.07.08l2.34,0h.88c2.61,0,5.17-.25,8-.49,1.12-.09,2.25-.22,3.37-.35l.55-.06c1.42-.17,2.84-.38,3.78-.52l.74-.1c.49-.07,1-.14,1.53-.25l.46-.12.48-.11h.24l1-.05,1.85-.1c3.28-.19,6.74-.67,9.72-1.1l.82-.12h.1a63.15,63.15,0,0,0,7.18-1.35,109.12,109.12,0,0,0,13.69-4.58,71.51,71.51,0,0,0,9.87-4.85c1.54-.94,2.92-1.95,4-2.73l.53-.4c1.23-.63,2.33-1.25,3.36-1.89,1.51-.91,3-1.88,4.46-2.83l.12-.07.35-.23.29-.2.16-.1,1.35-.89c4.09-2.64,8.18-5,13.07-7.63,1.55-.85,3.08-1.75,4.51-2.6l.46-.27.14-.08c1.18-.69,2.52-1.47,3.83-2.18,2.69-1.48,5.47-2.92,7.7-4.07l.25-.13,1.15-.59,2.94-1c4.83-1.56,9.7-3.07,15.31-4.75l3.6-1.06.9-.26,3-.9c2.52-.77,5.09-1.74,7.16-2.53l.14,0,.2-.08,1-.36c4.84-1.84,9.21-3.49,13.68-5.11s9.06-3.25,13.38-4.77l.71-.25.65-.23.63-.22c4.13-1.46,9.78-3.46,15-5.35a62.74,62.74,0,0,0,9.07-4.14c2-1.17,4.38-2.57,6.94-4.16,4.38-2.68,9-5.26,13.57-7.67q3-1.56,6-3.17l.61-.32c2.41-1.28,4.83-2.56,7.26-3.81,4.42-2.29,9.19-4.63,14.57-7.16l.46-.22c2.7-1.27,4.77-2.24,6.81-3.29a45.82,45.82,0,0,0,7.91-5.67l.4-.22c.29-.15.57-.31.85-.47a22.9,22.9,0,0,0,8-7.42l.54-.8.07-.09.2-.29,2.4-1.26c.7-.38,1.41-.74,2.11-1.11l.27-.14,1.66-.85.75-.49.48-.3a18.37,18.37,0,0,0,2.39-1.69l.35-.41a8,8,0,0,0,2-3.12,6.42,6.42,0,0,0,.17-2.35,8.29,8.29,0,0,0-1.19-3.69,6,6,0,0,0-2.13-2.14l-.23-.11-.72-.34a5.78,5.78,0,0,0-3-.81,12.56,12.56,0,0,0-2.28-.2h-.58a26.05,26.05,0,0,0-4,.42l-.46.08-.72.11q-.95.13-1.89.33a11.55,11.55,0,0,0-4.24-.75c-.45,0-.89,0-1.33.06a34,34,0,0,0-7,1.48c-1.35.42-2.7.9-3.79,1.28l-1.36.47c-2,.69-4.13,1.48-6.48,2.42-4.69,1.86-10.87,4.36-17.21,7.21-5.69,2.56-11.06,5.26-15.1,7.32l-3.63,1.86-.09,0-.21.1-.19.1-.34.17c-2.86,1.47-6.09,3.13-9.23,4.65-2.09,1-4.19,2-6.27,3.06l-4.62,1.91-1,.42-.11,0c-2.74,1.13-5.45,2.26-8.15,3.41-4.76,2-9.66,4.2-14.59,6.5l-2.89,1.34c-2.68,1.24-5.37,2.48-8,3.76-1.84.62-3.68,1.26-5.52,1.9l-.66.22-.15,0-.4.14c-2.8,1-6,2.06-9.05,3.07-2.32.75-4.74,1.49-6.87,2.13l-.12,0-.4.12-.22.07c-2.4.73-4.81,1.46-7.17,2.23L1126,706.8c-4.39,1.43-8.34,2.72-12.35,3.89-8,2.31-16.17,4.42-24.42,6.26-2.7.6-5.61,1.2-8.65,1.78,5.08-3.41,9.24-6.34,13.47-9.49l4-3,.9-.68,1-.73.26-.19c2.63-2,5.27-4,7.92-5.93l2.44-1.8,5.53-4.08c.64-.47,1.31-.92,2-1.36l.14-.1.11-.08,1.08-.73,2.12-1.44,3.55-2.44c1.75-1.18,3.71-2.33,5.28-3.25l.36-.22c.72-.41,1.43-.84,2.13-1.27,2.3-1.39,4.74-2.71,7.45-4.18l.38-.2c5.54-3,11.3-5.86,16.39-8.39l.32-.16c1.53-.77,3-1.5,4.49-2.22l.45-.22,1.14-.55.53-.26.45-.22.19-.09c2.79-1.37,5.66-2.77,8.46-4.18,5.06-2.57,11.73-6,18.44-9.53,6-3.15,11.94-6.42,17.52-9.5,4.94-2.71,10.22-5.83,14.07-8.1l2.7-1.59c4.29-2.51,8.55-5.27,12.32-7.72l3.78-2.45c4.14-2.65,8.33-5.59,12-8.17l.25-.17.09-.07,2.66-1.87,1.43-1,5.25-3.67c1.53-1.05,2.95-2.12,4.81-3.52l2.46-1.84q1.86-1.38,3.73-2.75l.14-.1.26-.19c3.26-2.4,7-5.11,10.46-7.9l17-13.5c1.09-.87,2.15-1.78,3.24-2.71l.17-.15c.55-.48,1.1-1,1.66-1.43l10.47-8.88c3.49-3,6.9-6,10.2-9l2.46-2.22.1-.09c3.54-3.17,7.93-7.11,12.12-11.12l9.24-8.85.91-.87c1.43-1.34,2.37-2.26,3.25-3.18l14.67-15.3.61-.64c.94-1,1.86-2.05,2.71-3.06l.27-.3,1-1.14.35-.4,9-10.25c3.14-3.57,6.16-7.24,9.09-10.79l.11-.14.07-.08,1.48-1.79,2.26-2.75c3-3.62,5.7-6.89,8.35-10.28l4.38-5.63,4.23-5.42,5.51-3.93.24-.17.18-.14c7.49-5.33,15.22-10.85,22.82-16.44l6.33-4.65c16.22-11.88,32.94-24.12,47.22-38.71A144.85,144.85,0,0,0,1513,377.87a105.87,105.87,0,0,0,11.78-23.21,70.81,70.81,0,0,0,4.61-22.44,29.36,29.36,0,0,0-.39-5l-.11-.71-.11-.7a10.27,10.27,0,0,0-.83-2.72,14.25,14.25,0,0,0-2.42-4.14,12.17,12.17,0,0,0-4.91-3.86,13.52,13.52,0,0,0-5.06-1.32h-.14l-1.57-.09q-1.72.23-3.45.48a13.36,13.36,0,0,0-3.72,1.32l-.21.1-1,.47a23.11,23.11,0,0,0-4.75,3l-.21.16c-7,5.29-12.06,12.58-17,19.63-3.32,4.75-6.33,9.75-9,14.16l-.59,1-3.19,5.27-3.3,5.48c-4.56,7.55-9.19,15-13.66,22.28l-.06.1-.2.33-2.31,3.72c-.57.93-1.2,1.85-1.8,2.74l-.12.16c-.31.45-.57.85-.83,1.24l-2.9,4.35-3.7,5.55c-2.17,3.26-4.57,6.74-7.32,10.63q-1.53,2.16-3,4.33l-.07.12-.15.2-.16.22c-1.84,2.63-3.93,5.6-6,8.45l-7.35,10-.37.5-3.82,5.21c-3.5,4.78-7,9.4-10.11,13.35l-3.35,2.3L1389.26,468l-11.07,7.56-2.66,1.82-.14.1c-2.13,1.46-4.74,3.26-7.23,4.86L1353,492l-22.4,14.32c-2.67,1.72-5.57,3.38-7.9,4.72l-.1.06c-1.25.72-2.5,1.44-3.74,2.17l-10.36,6.11-12.82,7.55c-7.9,4.66-16,9-23.82,13.17l-.19.11-.2.1-7.83,4.21c-15.16,8.18-31,16.44-43.68,23.08l-.35.19-3.08,1.61-15.33,8-21.78,11.45-2.27,1.19-1.53.8c-2.73,1.44-5.64,3-8.37,4.48l-11.16,6.13-11.16,6.14-4.26,2.31-.22.11-.25.14-.12.06c-2.65,1.43-5.66,3-8.5,4.73l-9,5.26-.1.06c-7.63,4.46-15.44,9-23.16,13.76q-17.67,10.82-35.3,21.66c-1.14.71-2.29,1.41-3.45,2.11-2,1.19-4.64,2.81-7.19,4.45l-11.29,7.25-3.93,2.53-2.84,1.82-3.12,2c-.84.54-1.64,1.13-2.42,1.69l-.12.09-.09.07-1.18.85-.46.34-8.48,6.07-1.61,1.14-.1.06c-1.33.93-2.7,1.89-3.92,2.9l-12.06,10.08c2.23-4.63,4.09-8.33,5.7-11.32l.77-1.43.06-.11.1-.18,1.77-3.3c.57-1.06,1.24-2.09,2-3.23l.09-.14c.34-.52.66-1,1-1.51,1.51-2.44,3.2-4.75,4.84-7l.95-1.3,5.21-6.26c.6-.72,1.27-1.41,1.92-2.07l.33-.34c.23-.24.46-.47.68-.72l1.28-1.36,2.42-2.58c1.49-1.59,3.12-3.15,4.56-4.52l.09-.09.43-.42.18-.17,1.78-1.72c1.45-1.42,2.87-2.74,4.71-4.44l1.2-1.11,2-1.9.1-.1.13-.12c1.24-1.18,2.65-2.51,4-3.72l8.26-7.29c4.81-4.26,9.63-8.32,14.15-12.12q4.63-3.92,9.31-7.78l1.53-1.27.34-.29.4-.34.48-.4.23-.18c5.12-4.27,10.41-8.68,15.56-13.08L1103,593l.22-.19c3-2.54,7-6,10.8-9.38l4.5-4c3.42-3,6.83-6.09,10.23-9.17l14.85-13.46,1.5-1.36c3.31-3,6.94-6.19,9.6-8.52l.23-.21,4.93-4.34q7.22-6.39,14.5-12.72,6.47-5.65,12.93-11.34c10.19-9,18.67-16.58,27-24.25,1.21-1.13,2.44-2.26,3.66-3.38,3.06-2.8,6.52-6,9.93-9.29l3.48-3.36.86-.83c3.13-3,6.36-6.1,9.5-9.29l9.65-9.83,4.69-4.77c3.09-3.14,6.36-6.59,8.74-9.1l.49-.51.17-.18.1-.11.15-.17.24-.25,1.13-1.19,3-3.14c8.73-9.12,17.13-18.4,25.68-27.9,5.37-6,11-12.43,14.8-16.7l.39-.45q4.62-5.26,9.28-10.52c8.48-9.58,16.84-18.62,23.89-26.2,6.77-7.28,13.91-14.9,22.46-24,2.66-2.82,5.46-5.64,7.88-8.06l7.64-7.67.93-.94c.72-.74,1.43-1.47,2.19-2.17l6.27-5.76,6.54-6c2.7-2.49,5.59-4.93,8.13-7.09l.19-.16,1.5-1.27,2.22-1.9.21-.19.33-.28c2.47-2.11,5-4.29,7.62-6.34l2.17-1.72,10.36-8.19,3.5-2.51,3.57-2.55c.79-.57,1.59-1.15,2.38-1.74l.11-.08c1.46-1.07,3.22-2.37,5-3.52l6.14-4,2.5-1.62,1.6-1,.32-.22.12-.07c1.4-.92,3-1.95,4.54-2.89l4.48-2.69.29-.17c3.73-2.24,7.53-4.52,11.34-6.61l2.3-1.27.37-.2.4-.22c4.15-2.29,9.33-5.14,14.34-7.7,5.89-3,12.18-6.18,18.7-9.38l2.92-1.42.49-.24c3.94-1.91,8-3.88,12-6.1l2.77-1.54,2.71-1.49c2.42-1.35,4.66-2.82,6.53-4.09a50.53,50.53,0,0,0,8.22-6.71,26.11,26.11,0,0,0,2.49-3.15l.44-.62a28.49,28.49,0,0,0,1.33-3,26.69,26.69,0,0,0,.54-3.2l-.07-.72a9.11,9.11,0,0,0-1-4.14,15.37,15.37,0,0,0-2.45-3.11,14.31,14.31,0,0,0-3.68-2.36,47.59,47.59,0,0,0-4.68-1.92A44.93,44.93,0,0,0,1531,180.5a81.75,81.75,0,0,0-10.39-.61c-1.51,0-3,0-4.52.09-4.59.16-9.14.69-13,1.17l-.23,0c-3,.37-6.44.78-9.63,1.41l-5.5,1.08-5.49,1.09c-3.26.63-7.06,1.38-10.82,2.3a248.79,248.79,0,0,0-26.78,8.2c-7.06,2.57-14.68,5.79-23.28,9.84-4.06,1.91-8,3.92-11.65,5.81l-.19.1-.1.05-.1.05c-1.5.78-3,1.59-4.47,2.41l-.34.2-20.67,11.94-7.34,4.23c-.85.49-1.68,1-2.52,1.6l-.19.14-.79.52-21.66,14.19-4.13,2.71-4.12,2.7c-.73.47-1.69,1.11-2.64,1.8l-9.27,6.9-9,6.69L1308.83,277l-4.37,3.25c-2.29,1.7-4.46,3.6-6.56,5.43l-.1.09-.17.15-.43.37-.26.23-.22.2-.23.19c-.46.4-.91.8-1.38,1.19L1284.7,297,1274.28,306l-7.61,6.53c-.26.22-.52.44-.79.65l-.07.07-.09.07c-.49.42-1.11.93-1.65,1.46l-24.3,23.84-8.36,8.2c-.51.51-1,1-1.54,1.5l-.15.17c-1.75,1.68-3.6,3.47-5.33,5.38l-9.75,10.65-5.46,6L1192,389.19c-2.15,2.35-4.11,4.58-6,6.79l-23.18,27.4-7.78,9.19c-1.59,1.89-3.16,3.8-4.73,5.71l-1.74,2.13-8.53,10.4-8.52,10.4-21.1,25.68-4.14,5-.73.9c-4.9,5.94-11.6,14.09-17.93,21.87l-.63.77-16.45,20.23-2,2.41-.12.14-.09.11c-1.83,2.24-3.63,4.44-5.36,6.68L1035.86,580c-2.21,2.82-4.29,5.75-6.31,8.58l-.17.24-.54.76-.55.78-.73,1-.72,1L1016,607.41l-4.57,6.32-1.47,2-1.42,2c-.62.85-1.19,1.74-1.81,2.73l-.14.21-.11.18-.87,1.36-14.4,22-.19.28c-2.12,3.24-4.19,6.41-6.14,9.63l-12.26,20.27a2.77,2.77,0,0,0-.48.11,11.81,11.81,0,0,0-4.89,2.92c-.48.59-1,1.18-1.39,1.77,1.09-4.92,2.25-10.61,3.89-19,.46-2.36.9-4.72,1.34-7.08l.16-.86c.52-2.81,1-5.63,1.61-8.43l1.12-5.62,1.12-5.61c.36-1.88.82-3.86,1.23-5.57l0-.14.06-.26c.23-.94.45-1.89.67-2.83,2.51-11,5.59-22.13,8.3-32l.11-.4,0-.15L987,586c4.33-15.75,7.76-32,11.08-47.65l0-.18,0-.22,0-.2.07-.31c1.43-6.79,3.2-15.23,5-23.28.48-2.11,1-4.21,1.41-6.33l.14-.62.05-.2.14-.65c.72-3.23,1.61-7.25,2.51-11l4.72-19.6c2.67-11.09,5.57-22.22,8.38-33l.06-.25.09-.36.81-3.06c.47-1.8,1-3.67,1.42-5.11l.08-.29c.26-.88.51-1.77.76-2.66.21-.71.41-1.42.61-2.13l.25-.92.07-.25.14-.51.14-.49c.45-1.62.91-3.26,1.38-4.86l2.18-7.24,1.51-5,1.51-5q.8-2.62,1.6-5.24l0-.12c1.09-3.57,2.45-8,3.66-12.37l1.41-4.95,0-.11c1.17-4.08,2.5-8.7,3.6-13.3.35-1.49.72-3,1.09-4.45l.09-.41,0-.16c1.06-4.25,2.23-9,3.11-13.65.27-1.45.53-2.91.81-4.36l0-.17,0-.29c.83-4.38,1.77-9.35,2.58-14.23l0-.3,0-.27c1-6.13,2-12.46,3.25-18.72l.24-1.3c.51-2.69,1-5.39,1.54-8.08.11-.64.29-1.28.46-1.9l.08-.32,0-.2c.08-.27.14-.51.2-.75l1.47-5.85.39-1.54c1.22-4.84,2.69-9.62,4.12-14.25l.1-.32.06-.21c.38-1.24.77-2.47,1.14-3.71,1.3-4.22,2.87-8.76,4-12.07l.14-.4.1-.29q1-2.74,1.89-5.49c.48-1.41,1.05-2.9,1.51-4.1l.1-.26.16-.43.15-.38c.18-.47.35-.92.51-1.37l4.15-11.1c.62-1.64,1.3-3.27,2.13-5.23.37-.86.71-1.68,1-2.5l1.5-3.63c.59-1.43,1.18-2.87,1.78-4.3l1.79-3.93,1.83-4q.52-1.12,1-2.25l.2-.45.08-.19c.69-1.54,1.55-3.47,2.45-5.3l2.17-4.41.53-1.06.54-1.09c1.55-3.16,3.1-6.31,4.68-9.45l1.09-2.12,1.08-2.14c3.68-7.21,7.49-14.67,10.75-22.42a53.24,53.24,0,0,0,3.68-11.15c.48-2.69.57-6.57-1.74-9.75l-.67-.88-.68-.87a8.55,8.55,0,0,0-3.83-2.23l-1.27-.31a9.21,9.21,0,0,0-2.38-.33Zm-62.28,587.32c2-.81,4-1.61,5.95-2.39s4.21-1.68,6.3-2.54c4.31-1.78,8.84-3.77,14.27-6.26a134.39,134.39,0,0,1-15.33,8.46c-1.91.76-4,1.45-6.17,2.08l-1.94.26-.9.12-2,.24-.2,0ZM959,730.12l1-1.94.52-1a10.33,10.33,0,0,0,2.2,1.83,16.12,16.12,0,0,0,1.5.89c-1.73,0-3.49.13-5.19.25Z" fill="#bedb39"/><path d="M1078.86,692.28a11.76,11.76,0,0,0-3.17.65,27.87,27.87,0,0,0-3.87,1.73,47.62,47.62,0,0,0-4.53,2.63c-1,.7-2,1.44-3,2.2-1.24.42-2.49.83-3.74,1.21-3.08,1-6.16,1.92-9.25,2.84a186.33,186.33,0,0,1-18.75,4.73s0,0,0,0a197,197,0,0,0,21.45-.93l1.65-.15c-1,1-1.89,1.93-2.82,2.91-1.59,1-3.2,2-4.86,2.84-2.77,1.45-5.52,2.88-8.34,4.22-2.35,1.12-4.74,2.16-7.13,3.19-3.5,1.36-7,2.66-10.55,3.93s-7.21,2.32-10.84,3.39-7,2.07-10.54,3.15a112.38,112.38,0,0,1-12.15,3.53,19.92,19.92,0,0,1-3.09,0,31.75,31.75,0,0,1-4.56-1.25c-2.52-1.15-5-2.42-7.41-3.71a101.91,101.91,0,0,1-12.47-7.27c-1.82-1.48-3.57-3.07-5.26-4.68-2.22-2.11-4.38-4.45-7.06-6a4.36,4.36,0,0,0-6.4,4.92c.36,1.63,1.56,2.69,2.68,3.81.58.58,1.19,1.16,1.78,1.73l0,0,.82,1q1.34,1.63,2.73,3.24a57,57,0,0,0,4.84,5.12,71.82,71.82,0,0,0,7.18,5.46l6.85,4.75a53,53,0,0,0,6.16,3.93c4.23,2.11,8.68,3.72,13.5,3.56a46.71,46.71,0,0,0,12-2.52c5.27-1.66,10.59-3.16,15.9-4.69s10.36-3.16,15.38-5.16c3.23-1.28,6.44-2.59,9.62-4,.88-.38,1.75-.78,2.63-1.19a6,6,0,0,0,6.14,0,33.29,33.29,0,0,0,3.87-3.23l2.18-1.93,4-3.45,3-1.85A122.51,122.51,0,0,0,1077.27,711c.64-.55,1.27-1.11,1.88-1.69.27-.25.52-.51.78-.78a12.14,12.14,0,0,0,2.31-3,7.14,7.14,0,0,0,1-3.67,6.94,6.94,0,0,0-.1-1.2,4.47,4.47,0,0,0,.91-1.73,4.88,4.88,0,0,0-1.27-4.82,5.89,5.89,0,0,0-3.66-1.78Z" fill="#bedb39"/><path d="M1616.7,433.59a13.61,13.61,0,0,0-3.69,1.74,29.82,29.82,0,0,0-3.83,3c-2.5,2.14-4.75,4.61-7,7-8.3,8.71-16.63,17.41-25.41,25.64-7.68,7.22-15.69,14.12-23.83,20.82-4,3.25-8.05,6.32-12,9.51-4.23,3.38-8.39,6.83-12.61,10.22-9.38,7.13-19.08,13.86-29,20.21-10.79,6.9-21.73,13.59-32.55,20.44q-4.21,2.67-8.42,5.35-6.9,3.87-13.82,7.69c-5.66,3.1-11.29,6.23-16.87,9.46-5.27,3.05-10.45,6.24-15.7,9.3-4.38,2.55-8.79,5-13.26,7.37q-6,2.22-12,4.22c-6,2-12,3.93-17.93,6.27q-10.21,4-20.06,8.91c-5.28,2.6-10.47,5.37-15.7,8-5.8,3-11.62,5.88-17.41,8.85-5.32,2.72-10.52,5.65-15.78,8.49s-10.6,5.7-15.76,8.82c-3.77,2.27-7.52,4.57-11.21,7l-3.55,1.74c-5.73,2.84-11.36,5.88-17,8.83a166.74,166.74,0,0,0-16.21,9.42q-4,2.69-7.91,5.43c-1.19.82-2.38,1.64-3.53,2.5-.48.36-1,.72-1.49,1.08l-4.5,2.31c-5.71,3-11.24,6.3-16.81,9.54q-4.41,2.58-8.89,5.06-4.8,2.22-9.65,4.33c-11.09,4.49-22.29,8.77-33.42,13.18-3.7,1.46-7.41,2.92-11,4.58-2.81,1.27-5.57,2.66-8.31,4.06-5.22,2.67-10.47,5.32-15.59,8.18a154.75,154.75,0,0,0-16.26,11c-5.3,3.92-10.62,7.84-15.85,11.87h0l.51-.39-.51.39c-3,1.34-6,2.72-9.09,4.06l.06,0-1.6.68,0,0c-3.73,1.5-7.54,3.14-11.53,3.8h.06c-.6.07-1.18.1-1.78.12,0,0,0,0,0,0a29.46,29.46,0,0,0,10,.81,71.86,71.86,0,0,1-6.67,3.38c-7.76,2.9-16,3.75-24.1,5,0,0,0,0,0,0,6,.26,11.93.63,17.9.36a55.59,55.59,0,0,0,8.72-1.1c2.76-.57,5.46-1.41,8.15-2.23,6-1.8,11.57-4.54,17.25-7l4.95-2.2,1.58-.36a73,73,0,0,0,8.72-2.52c3.51-1.3,6.95-2.78,10.37-4.3,5.53-2.46,11-5.05,16.54-7.55l3.2-1.43c2.63-1,5.25-2,7.9-3,11.46-4.07,23-7.89,34.31-12.36,12.34-4.89,24.37-10.48,36.4-16.1,5.49-2.57,11-5.13,16.29-8.11s10.38-6.07,15.63-9c9.49-5.27,18.86-10.71,28-16.58q4.63-2,9.28-4c5.91-2.46,11.85-4.84,17.69-7.47,5.32-2.4,10.59-4.92,15.83-7.47,2.65-1.29,5.29-2.6,7.91-4s5.24-2.91,7.89-4.31c5.32-2.83,10.74-5.47,16.12-8.18,11.28-5.68,22.62-11.29,34.1-16.59,5.38-2.48,10.82-4.86,16.17-7.42q8.48-4,16.94-8.09c5.7-2.74,11.32-5.62,17-8.45,5.25-2.63,10.54-5.18,15.68-8q4.38-2.4,8.72-4.87c1.06-.52,2.12-1.06,3.17-1.61,5.93-3.12,11.77-6.35,17.57-9.68,10.76-6.18,21.41-12.58,32-19.06,5.13-3.15,10.21-6.37,15.34-9.52s10.55-6.39,15.77-9.68c10.86-6.82,21.63-13.79,31.84-21.56a204,204,0,0,0,16.91-14.88q3.87-3.66,7.78-7.3c3.43-3.19,7.28-6.49,8.69-11.12a9.7,9.7,0,0,0-1.19-7.94c3.36-3.58,6.54-7.29,9.58-11.18a192.34,192.34,0,0,0,11.82-16.14,32.23,32.23,0,0,0,2.31-4.81c0-.26.07-.51.11-.76a9.19,9.19,0,0,0,0-4.88,12,12,0,0,0-2.54-4.5,10.75,10.75,0,0,0-4.39-2.5,7.87,7.87,0,0,0-2.15-.29,18.37,18.37,0,0,0-3.19.39ZM1074.29,758.85l-.18.07.18-.07Z" fill="#bedb39"/><path d="M434.16,375.71a186,186,0,0,0-20.11,1.85,129,129,0,0,0-21.74,4.61,164.5,164.5,0,0,0-22.16,8.48,147.74,147.74,0,0,0-17.07,10c-1.3.85-2.58,1.73-3.86,2.61-.66.46-1.29,1-1.93,1.48a38.05,38.05,0,0,0-6.38,5.56c-2.32,2.78-4.49,6.32-4.07,10.14a14.44,14.44,0,0,0,1.9,6.69c1.25,2.25,2.94,3.4,5,4.86s4.93,1.78,7.14,2a19.55,19.55,0,0,0,5.13-.48,15.88,15.88,0,0,0,3.1-.95c2.59-1.07,5-2.21,7.49-3.5q1.23-.66,2.49-1.26a59.25,59.25,0,0,1,8-2.07,85.5,85.5,0,0,0,9-1.87c3.21-1,6.34-2.2,9.57-3.13a72.19,72.19,0,0,1,7.95-1.73,51,51,0,0,1,5.81-.21c1.4,0,2.81.14,4.21.28,2.11.39,4.19.86,6.28,1.38,1.26.31,2.53.62,3.8.91,2.56.59,5.15.87,7.77,1.22a32.68,32.68,0,0,0,7.78.25c2.8-.3,5.59-.67,8.37-1.05,5.67-.67,11.31-1.11,17-1.32a133.46,133.46,0,0,1,16.84.81c1.64.26,3.26.56,4.87,1,3.07.79,6.05,1.78,9,2.83,5.35,1.88,10.68,3.94,16.18,5.34,11.94,3,24.31,2.66,36.49,3.88,2.71.48,5.39,1.06,8.06,1.76,3,.78,6,1.83,9,2.87,6.51,2.28,12.87,4.94,19.22,7.62,6.08,2.55,12.18,5,18.35,7.35s12.31,3.85,18.3,6.21c3.85,1.51,7.66,3.09,11.48,4.67,5.47,2.43,10.77,5.2,16.13,7.88q9.35,4.68,18.88,9c6.23,2.81,12.67,5.17,18.6,8.59,2.87,1.66,5.58,3.62,8.31,5.51s5.45,3.88,8.12,5.88c12.64,9.5,25.19,19.14,37.77,28.72,9.92,7.76,19.56,15.87,29.13,24,5.25,4.48,10.46,9,15.7,13.53,5,4.34,10.1,8.73,14.83,13.39,7.46,7.35,14.39,15.18,21.65,22.72,3.38,3.52,6.77,7,9.93,10.74,2.85,3.36,5.58,6.81,8.29,10.28,3.65,4.82,7.08,9.73,10.31,14.86,1.89,3,3.72,6,5.62,9,1.78,2.81,3.67,5.54,5.54,8.29,3.83,5.61,7.76,11.16,11.44,16.87,1.67,2.6,3.22,5.29,4.87,7.9s3.55,5.38,5.52,7.94c4.49,5.82,9,11.57,14.39,16.58,4.82,4.46,9.75,8.8,14.83,13,2.51,2,5,4.1,7.47,6.2,1.43,1.22,2.88,2.43,4.33,3.62a30.7,30.7,0,0,0,4.9,3.34,40.9,40.9,0,0,0,4.41,1.89c6.08,2.41,12.84,2.9,19.28,3.54,1,.1,2,.2,3,.33l-.7-.09q6.62.88,13.22,1.71c2.08.26,4.14.55,6.22.75a38.2,38.2,0,0,0,6.5.23c2.71-.19,5.13-1.38,7.54-2.5a0,0,0,0,0,0,0,38.09,38.09,0,0,1-5.24,1.37,21.09,21.09,0,0,1-4.7-.1,110.24,110.24,0,0,1-17-4.57c-2.35-.79-4.65-1.72-7-2.63s-4.74-1.83-7.09-2.79a34,34,0,0,1-18.19-14.3c-1.57-1.94-3.14-3.88-4.68-5.84-4.2-5.56-8.35-11.15-12.61-16.66a168.52,168.52,0,0,1-10.48-15.73c-3.32-5.61-6.24-11.47-9.2-17.27-6.17-12.12-13.1-23.8-20.11-35.44a292.59,292.59,0,0,0-24.82-34.83c-4.42-5.38-8.85-10.75-13.39-16-4.4-5.1-8.84-10.21-13.66-14.93-5-4.9-10.19-9.65-15.23-14.53-4.72-4.57-9.35-9.23-14.12-13.75-4.94-4.69-9.9-9.35-15-13.83s-10.36-8.86-15.67-13.15c-10.74-8.68-21.6-17.22-32.32-25.93-2.48-2-4.88-4.1-7.33-6.13-3.62-3-7.34-5.9-11.15-8.66a83.34,83.34,0,0,0-8.34-5.62c-3-1.67-6.13-3.05-9.27-4.44-12.33-5.45-24.33-11.55-36.4-17.55-6.07-3-12.31-5.63-18.54-8.28-4.42-1.88-8.82-3.8-13.36-5.36-3-1.05-6.12-2-9.15-3.16-12.79-4.78-25.11-10.75-38-15.26a110.4,110.4,0,0,0-19.28-5.32,137.93,137.93,0,0,0-13.73-1.54c-3.22-.18-6.44-.32-9.65-.5-2.58-.15-5.14-.34-7.7-.6a113.37,113.37,0,0,1-18-5.21c-3.13-1.17-6.23-2.38-9.41-3.43a51,51,0,0,0-10.08-2c.42-.13.84-.26,1.26-.41,1.61-.52,3.22-1.05,4.78-1.7A3.48,3.48,0,0,0,495,382l.18-.08h0a3.09,3.09,0,0,0-1.55-5.77c-6.45.25-12.91.26-19.36.27s-13.09,0-19.62-.29c-5.63-.25-11.24-.49-16.87-.49-1.2,0-2.4,0-3.61,0Zm-52.54,14.52-1.64.7-1.28.53,2.92-1.23ZM978.3,739.6h0Z" fill="#bedb39"/><path d="M544.06,363.88c-5.45.1-10.9.36-16.35.69s-10.84.87-16.25,1.46c-5.11.56-10.22,1-15.35,1.42-10.8.87-21.58,1.95-32.34,3.18-5.5.64-11,1.57-16.4,2.6a138.31,138.31,0,0,0-15.1,3.35c-1.94.6-3.84,1.29-5.74,2,0,0,0,0,0,0,3.62-.87,7.24-1.58,10.93-2.09a279.76,279.76,0,0,1,31.58-1q16.32.48,32.62,1.18c9.14.42,18.29.34,27.43.6,4.51.13,9,.34,13.54.52,2.34.1,4.68.24,7,.38,1.71.1,3.42.34,5.13.55,5,.84,10,1.79,14.94,3s10.12,2.57,15.14,4c5.5,1.59,11,3.26,16.39,5.06,4.4,1.45,8.68,3.18,13,4.95,5,2.27,9.91,4.63,14.73,7.29,4.47,2.46,8.78,5.21,13,8,4.77,3.19,9.56,6.29,14.52,9.16,4.81,2.79,9.71,5.42,14.61,8.06,9.69,5.24,19.1,11,28.72,16.33,4.67,2.61,9.48,5,14.26,7.37s9.74,5,14.57,7.59c2.43,1.31,4.76,2.81,7.13,4.22s4.63,3.06,6.93,4.59,4.45,3.21,6.66,4.82,4.41,3.29,6.62,4.93c8.68,6.48,17.57,12.67,26.41,18.94,2,1.43,4,2.93,6,4.41,3.72,2.95,7.4,5.93,11.05,9,4,3.32,7.87,6.77,11.79,10.16L824,531.7c4,3.5,7.91,7.12,11.78,10.79,3.61,3.43,7.12,7,10.78,10.37,3.49,3.24,7.2,6.23,10.72,9.43,3.73,3.38,7.5,6.73,10.89,10.45,1.81,2,3.59,4,5.31,6,1.47,1.73,2.88,3.51,4.3,5.28,3,3.89,6,7.75,8.9,11.66,1.66,2.22,3.3,4.44,4.85,6.74s2.83,4.59,4.22,6.89c2.7,4.48,5.8,8.7,8.69,13.05,1.41,2.14,2.76,4.33,4.08,6.53.62,1,1.23,2.09,1.9,3.1l1.08,1.63a5.33,5.33,0,0,0,2.42,2.3,2.63,2.63,0,0,0,1.24-.16s0,0,0,0l-.59,0h0l-.5-.1-.48-.42a.21.21,0,0,0,0,.06,3.56,3.56,0,0,1-.64-1.14l.05.12c-.73-2.6-1.27-5.25-1.94-7.86s-1.4-5.14-2.21-7.67c-1.61-5.06-3.49-10-5.09-15.07-.78-2.49-1.63-4.93-2.58-7.35-1.13-2.85-2.43-5.64-3.7-8.42-2.17-4.72-4.44-9.43-6.84-14-1.39-2.66-2.83-5.27-4.32-7.88-1.27-2.2-2.68-4.3-4-6.43-.74-1.15-1.63-2.22-2.43-3.31-1.13-1.54-2.25-3.09-3.47-4.55-1.82-2.19-3.64-4.37-5.57-6.46-7.48-8.14-15.19-16.05-23.3-23.57C844,518.24,840,515.1,836.15,512q-6.72-5.42-13.42-10.87c-4.23-3.45-8.46-6.9-12.72-10.31-4.82-3.86-9.79-7.53-14.8-11.13-4.35-3.12-8.79-6.11-13.2-9.13s-9-6.23-13.38-9.4-8.83-6.34-13.28-9.46-9.18-6-13.94-8.74C731.88,437.44,721.75,433,712,428c-4.88-2.49-9.66-5.2-14.45-7.87s-9.5-5.18-14.3-7.69-9.35-4.75-14-7.15-9.31-5-13.83-7.7c-5-3-10-5.86-15.11-8.62a150.2,150.2,0,0,0-15.84-7.16,227.46,227.46,0,0,0-31.17-10.19,311.37,311.37,0,0,0-33.4-6.71,111.5,111.5,0,0,0-14.37-1.05Z" fill="#bedb39"/><path d="M1156.34,62.94a3.89,3.89,0,0,0-.8.51c-1.28,1-2.54,1.93-3.8,2.92-4.57,3.3-9.51,6-14.12,9.26A119.85,119.85,0,0,0,1127,84.27c-2.39,2.12-4.69,4.33-7,6.57-4.54,4.49-8.93,9.14-13.46,13.64a127.17,127.17,0,0,0-14.82,17.6c-3.46,5-6.5,10.32-9.86,15.39-3.71,5.59-7.43,11.18-11,16.84-3.3,5.18-6.6,10.37-10,15.49-3.65,5.52-7.26,11.06-10.48,16.84-6.24,11.18-12.18,22.6-17.48,34.26q-4,8.81-8.11,17.59c-3.27,7-6.67,14-9.34,21.19-3.25,8.82-5.93,17.85-9,26.73s-6.13,17.67-9.58,26.37q-2.28,5.28-4.64,10.51c-2.63,5.8-5,11.69-7.41,17.59-1.91,4.71-3.88,9.4-5.79,14.11-1.72,4.25-3.34,8.54-5.07,12.79-2.81,6.52-5.59,13-8,19.74-1,3-1.8,6-2.64,9.05q-1.38,4.94-2.72,9.86c-1.6,5.83-2.95,11.72-4.31,17.61-1.5,6.49-3.15,12.93-4.87,19.37-1.61,6-3.05,12.12-4.83,18.13-.95,3.22-1.87,6.44-2.71,9.69-.79,3.07-1.41,6.17-2.13,9.25-1.45,6.2-3.27,12.3-4.89,18.45s-3.07,12.45-4.25,18.78c-2.41,12.95-5.59,25.72-8.28,38.62A190.46,190.46,0,0,0,921,575.72a112.33,112.33,0,0,0-.25,19.58c.46,6.47,1.06,13.18,3,19.39a42.57,42.57,0,0,0,4.25,8.68,31.76,31.76,0,0,0,4.94,6s0,0,0,0a46.36,46.36,0,0,1-3.4-6.42,51.06,51.06,0,0,1-2.37-8.82,69.05,69.05,0,0,1,.67-15.47c.73-4.62,1.62-9.16,2.69-13.7a67.85,67.85,0,0,1,3.71-10.68c2.57-5.74,5.22-11.43,7.82-17.15,3.07-6.73,5.86-13.58,8.44-20.52,2.19-5.92,4.12-12,5.89-18,1.71-5.87,3.66-11.64,5.61-17.43,4.21-12.49,8-25.11,12.08-37.65q6-18.47,11.26-37.12,2.85-10,6-19.88,1.69-5.31,3.57-10.57c.78-2.21,1.67-4.38,2.58-6.55,5.13-12.06,10.15-24.18,15.42-36.18,2.57-5.87,5.49-11.58,8.13-17.42,3.09-6.8,6-13.67,8.7-20.64,5.22-13.45,10-27.09,15.5-40.44q7.33-16.69,15.35-33.09c2.7-5.53,5.45-11,8.3-16.46-3.59,8.59-7.21,17.17-10.74,25.78-5,12.11-9.34,24.45-13.89,36.71-2.11,5.66-4.29,11.3-6.3,17q-3.32,9.42-6.52,18.89c-4.49,13.16-9.33,26.18-14.19,39.2a507.3,507.3,0,0,0-20.92,73.86c-2.82,13.51-5.6,27-8.52,40.49-2.69,12.37-5.55,24.71-8.32,37.06-3,13.39-6.14,26.76-9.13,40.16q-2.06,9.24-4.16,18.47c-1.48,6.4-2.94,12.78-4,19.25-.93,5.36-1.46,10.81-2,16.22-.39,3.71-.84,7.42-1.31,11.11-.89,6-1.85,12-2.6,18-.67,5.35-1.26,10.7-1.93,16-.68,4.79-1.4,9.58-1.92,14.4-.24,2.23-.41,4.46-.58,6.7-.08,1.1-.13,2.2-.19,3.3,0,.53,0,1.06,0,1.59a31.91,31.91,0,0,0,.52,4.46,15,15,0,0,0,1.59,4.14,12.45,12.45,0,0,0,7.69,5.91,12.89,12.89,0,0,0,12.52-3.3c3.47-2.92,4.23-8,5.19-12.18.12-.5.23-1,.35-1.51l.5-.39a11.66,11.66,0,0,0,3-5.19c.06-.4.11-.81.16-1.21a110.69,110.69,0,0,1,4-12.54,8.47,8.47,0,0,0,4,1,8.17,8.17,0,0,0,6-2.49c.49-.61.92-1.18,1.31-1.75l0,0c5.64-9.74,12.57-18.54,19.37-27.49,4.06-5.34,8.16-10.66,12.25-16s7.79-10.55,11.64-15.87,7.51-10.88,11.18-16.4c7.43-11.15,14.42-22.6,21.47-34,6.5-10.51,13.07-21,20.24-31.11,2-2.87,4-5.81,6.16-8.61l6.6-8.68c8.16-10.29,16.53-20.4,24.91-30.5,8-9.71,15.76-19.71,23.78-29.44,4.24-5.14,8.5-10.24,13-15.2,4.3-4.8,8.79-9.44,13.2-14.13s8.82-9.42,13-14.32l.31-.35c3.81-3.59,7.63-7.16,11.33-10.85,2.46-2.47,5-4.86,7.39-7.41l7.43-8c4.27-4.58,8.31-9.41,12.38-14.18a13.2,13.2,0,0,0-2.29,4.41,7.17,7.17,0,0,0,1.8,6.81,7,7,0,0,0,3.08,1.8,7.57,7.57,0,0,0,5.4-.71,23,23,0,0,0,5.4-3.82l3.07-2.62c1.46-1.25,2.88-2.56,4.3-3.85l10.19-9.2c6-5.43,12.31-10.53,18.6-15.66l7.4-5.65c2.65-2,5.45-3.88,8.17-5.81,5.38-3.82,11-7.26,16.63-10.75s11-6.69,16.57-10c5.19-3.09,10.36-6.22,15.62-9.18,2.77-1.56,5.54-3.09,8.31-4.62q-14.48,12-28.89,24.08c-9.44,7.91-18.72,16-28.14,23.95-5,4.2-9.86,8.54-14.82,12.77-5.32,4.54-10.59,9.13-15.87,13.72-9.82,8.54-19.45,17.29-28.65,26.5s-18.57,18.31-25.73,29.22c0,0,0,0,0,0a120.45,120.45,0,0,1,9.61-8.73c10.59-8.11,21.61-15.67,32.44-23.45,10.11-7.26,20.47-14.19,30.52-21.54,11.69-8.56,22.91-17.65,34-26.93q14.82-12.33,29.76-24.53,18.18-14.87,36.58-29.47c4.57-3.5,9.12-7,13.77-10.42q9-6.54,18-12.9c10.67-7.47,21.57-14.64,32.32-22,5-3.44,10-7,15-10.36,5.31-2.14,10.59-4.34,15.75-6.8a135.19,135.19,0,0,0,12.38-6.78c2.24-1.37,4.48-2.74,6.71-4.13,3.59-2.23,7.86-4.47,9.92-8.26a10.19,10.19,0,0,0,0-10.06c-1.65-2.8-5.2-5.25-8.6-4.93-1.37.13-2.73.32-4.08.54a19.54,19.54,0,0,0-4.16,1.61c-1.86.8-3.68,1.68-5.49,2.6-2.24,1.15-4.41,2.42-6.55,3.75-2.8,1.76-5.69,3.42-8.42,5.3q-7,4.81-13.94,9.72c-4.89,2.05-9.76,4.13-14.6,6.3-5.89,2.63-11.59,5.74-17.21,8.9-11.66,6.54-22.92,13.78-34.29,20.79q-16.12,9.92-32.62,19.18c-5.9,3.33-11.82,6.62-17.66,10.06s-11.74,7.07-17.57,10.68c-11.26,7-22.38,14.14-33.28,21.68-5.82,4-11.39,8.46-17,12.85q-6.22,4.9-12.18,10.11c2.85-4.95,5.88-9.78,8.87-14.63,5.89-5.57,11.8-11.11,17.67-16.7,9.42-9,19.13-17.62,28.77-26.36,7.74-7,15.33-14.19,22.85-21.46s15.46-14.57,23.71-21.3c4.88-3.69,9.83-7.31,14.6-11.14a70.87,70.87,0,0,0,6.38-5.48,34.75,34.75,0,0,0,2.81-3c1.39-1.77,2.85-3.49,4.08-5.36a30.15,30.15,0,0,0,2.43-5.35,18.53,18.53,0,0,0,.89-6.07,16.92,16.92,0,0,0-5.07-12.24l-3.5-2.71a17.21,17.21,0,0,0-7.07-2.29c1.82-2.76,3.6-5.55,5.22-8.43,2.33-4.13,4.58-8.3,6.71-12.54,1-2,2-4,3-6.05,1.37-2.88,2.8-5.71,3.92-8.7a11.47,11.47,0,0,0,0-5.93,11.1,11.1,0,0,0-1.68-3.5,10.35,10.35,0,0,0-17.17-4.12,43,43,0,0,0-4.77,6.85c-.86,1.34-1.73,2.66-2.61,4-1.93,2.91-3.91,5.77-5.9,8.64-3.53,5.09-7.12,10.13-10.63,15.22s-7.16,10.41-10.53,15.75c-3.73,5.92-7.38,11.88-11,17.84q-6.63,10.81-13.64,21.39c-8.18,9.34-16.55,18.53-24.59,28-5.33,6.29-10.93,12.35-16.46,18.48q-6.88,6.46-13.68,13.05c-9.77,9.5-19.67,18.84-29.09,28.68-8.76,9.14-16.49,19.19-24.54,28.95-4.26,5.16-8.46,10.44-13,15.37-2.46,2.67-4.91,5.34-7.38,8s-5,5.08-7.48,7.61c-7.58,7.71-15.67,15-23.63,22.31q-5.41,5-10.9,9.95c-4.17,3.76-8.38,7.4-12.66,11a179.53,179.53,0,0,0-15.46,12.39,126.61,126.61,0,0,0-15.21,17.33c-.92,1.24-2,2.46-2.78,3.77q-1.61,2.57-3.23,5.13c-1.65,2.63-3,5.45-4.48,8.19-2.91,5.49-5.9,10.92-9.06,16.27s-6.25,10.7-9.69,15.86c-3.7,5.55-7.59,11-11.37,16.45-1.44,2.09-2.82,4.22-4.19,6.36q-4.29,5.75-8.47,11.59c-4,5.59-7.94,11.19-11.8,16.87q-1.95,2.89-3.92,5.78c-1.14,1.39-2.3,2.76-3.47,4.13-4.08,4.79-8.3,9.47-12.43,14.23-9.09,10.45-18.19,21-26.58,32-4.15,5.43-8,11-11.57,16.84q-1.31,2.1-2.54,4.25l-.4-.15c.21-2.67.41-5.33.59-8,.25-3.66.62-7.29,1-10.94,2-12.66,4.68-25.21,7.25-37.77s5.49-25.09,8.27-37.62c2.93-13.24,6-26.43,9-39.66,2.79-12.42,5.32-24.88,8.07-37.31,2.85-12.87,5.71-25.78,9.6-38.4,2.13-6.87,4.32-13.69,6.62-20.5,2-5.81,4.19-11.55,6.38-17.28,4.76-12.37,9.5-24.75,13.76-37.3,4.35-12.8,8.84-25.53,13.58-38.19,3.57-9.57,7.33-19,11.17-28.5,5.08-11.81,10.31-23.54,15.51-35.29s10.39-23.81,16.13-35.49c4.53-9.23,9.67-18.12,14.75-27.05q3.7-6.51,7.6-12.89c2.48-4.05,5.34-7.86,8.15-11.69,6.45-8.21,13.14-16.27,19-24.9,3.11-4.59,6.16-9.21,9.2-13.84,2-3.09,4-6.2,6.12-9.25l.47-.48a22.24,22.24,0,0,0,3.08-3.85,15.39,15.39,0,0,0-8.68-23.44l-4.09-.55a15.36,15.36,0,0,0-7.77,2.1ZM998.16,387.64c-.19.46-.39.92-.59,1.39.2-.47.4-.93.59-1.39ZM929.41,622.72l0,.08,0-.08Zm54,44.49-.07.56a5.35,5.35,0,0,1,.07-.56Z" fill="#bedb39"/><path d="M1441.42,292.17a5.6,5.6,0,0,0-4.15,5.21,9.27,9.27,0,0,0,1.21,4.22c.23.49.45,1,.67,1.49l.21.71c.36,1.21.74,2.42,1.11,3.63.71,2.27,1.38,4.55,1.93,6.86s1,4.75,1.59,7.13,1.11,4.52,1.56,6.81a82.27,82.27,0,0,1-.31,14.21l-.27,1.65a28.94,28.94,0,0,1-1.63,5.6,162.73,162.73,0,0,1-8.44,15.17c-2.77,4.61-5.3,9.35-8.05,14s-5.68,9.2-8.61,13.76c-3.15,4.92-6.21,9.89-9.26,14.88s-6.22,9.72-9.54,14.43q-1.7,2-3.45,3.84a149.68,149.68,0,0,1-16.19,14.84c-8.3,6.37-16.69,12.63-24.82,19.22-8.67,7-16.84,14.53-25,22.17-16.1,15.13-32.6,29.8-49.86,43.59l0,0c-3.79,2.88-7.6,5.74-11.47,8.51-4.33,3.09-8.79,6-13.32,8.75-9.42,5.78-19.08,11.17-28.48,17-9.07,5.61-17.86,11.65-26.85,17.37-4.66,3-9.32,5.95-14,8.84s-9.62,5.59-14.57,8.16c-9.64,5-19.58,9.4-29.19,14.46-4.49,2.37-8.87,5-13.45,7.22q-7.26,3.54-14.61,6.88-7.83,3.56-15.62,7.22c-4.92,2.31-9.65,4.95-14.35,7.66-9.51,5.48-18.51,11.91-27.41,18.31q-4.36,3.13-8.62,6.4a80.72,80.72,0,0,0-8.85,7.89c-2.29,2.36-4.56,4.76-6.94,7s-5.05,4.63-7.71,6.81c-3.83,2.9-7.75,5.72-11.39,8.86a23.2,23.2,0,0,0-5.48,6.68,18,18,0,0,0-1.79,7.81,77.45,77.45,0,0,0,.34,8.62s0,0,0,0a72.66,72.66,0,0,1,3.09-11,15.3,15.3,0,0,1,1.16-1.94,18.4,18.4,0,0,1,2.51-2.56,52.34,52.34,0,0,1,9.32-4.81c5.07-2.09,10.09-4.21,15-6.66,4.57-2.29,8.83-5.14,13.36-7.48,5-2.58,10.12-4.82,15.22-7.16s10-4.81,15-7.32q14.78-7.46,29.73-14.53c9.84-4.68,19.93-8.81,29.82-13.36,4.72-2.18,9.36-4.58,14-6.92s9.32-4.5,14-6.7c9.77-4.58,19.62-9.11,28.92-14.59s18.63-11.16,27.71-17.12c9.26-6.09,18.56-12.13,28.23-17.58,4.66-2.62,9.36-5.18,14-7.9s9.3-5.44,13.66-8.57c3.38-2.43,6.78-4.82,10.07-7.39l7.14-5.58c4.16-3.25,8.18-6.69,12.21-10.09s8-6.73,12-10.16l.75-.65c.87-.62,1.73-1.24,2.59-1.88q7.93-5.92,15.7-12.08,4-3.15,7.85-6.43c6-4.3,12-8.59,17.71-13.22,4.18-3.36,8.35-6.72,12.46-10.16s8.3-6.77,12.07-10.52c1.88-1.88,3.82-3.71,5.61-5.68,1.94-2.13,3.87-4.27,5.73-6.48,3.73-4.42,7.34-8.93,11-13.44,4.82-6,9.71-11.91,14.59-17.86l.4-.44c7.17-7.91,14.38-15.79,21.7-23.56,3.73-4,7.52-7.88,11.21-11.89a173.9,173.9,0,0,0,12.55-14.57,61.07,61.07,0,0,0,4.2-6.14c1.41-2.5,2.75-5,4-7.59,2.88-5.68,5.27-11.68,7.68-17.57,1.34-3.3,2.53-6.66,3.74-10,1-2.9,1.89-5.86,2.93-8.77a27.72,27.72,0,0,0,2.12-5.38,13.68,13.68,0,0,0-1.35-10.34,13.39,13.39,0,0,0-23.15,0h0a18.22,18.22,0,0,0-2,3.74c-.89,2.05-1.93,4.25-2.63,6.4-.28.89-.54,1.78-.79,2.67-1.75,3.63-3.59,7.22-5.48,10.78-.09-1.54-.22-3.08-.37-4.61a37.49,37.49,0,0,0-2.17-9.66c-.9-2.41-1.9-4.77-2.87-7.14a121.78,121.78,0,0,0-6.64-13.7c-1.89-3.34-4.43-8.56-8.71-8.56a5.7,5.7,0,0,0-1.54.21Zm6.57,39.69v0Z" fill="#bedb39"/><path d="M1277.85,434.51c-2.44,1.33-4.23,3.42-6.13,5.38-.84.86-1.68,1.72-2.51,2.59q-2.94,3.06-5.89,6.11c-3.67,3.78-7.34,7.55-11,11.35q-11.44,11.91-22.78,23.9c-7.5,7.93-15,15.9-22.8,23.53-4.16,4.06-8.31,8.11-12.54,12.1s-8.67,8-13,12c-5.37,4.86-10.8,9.64-16.23,14.44-7.63,6.26-15.15,12.66-22.73,19l-4.79,4c.18-.19.36-.38.53-.58.57-.62,1.11-1.28,1.66-1.93,2-2.39,4.05-4.93,4.59-8.1a11.74,11.74,0,0,0-8.18-14.42l-3.12-.42A11.59,11.59,0,0,0,1127,545a49.31,49.31,0,0,0-5.1,4.14c-.38.37-.8.71-1.2,1.07-1,.87-1.92,1.71-2.86,2.59-1.94,1.81-3.89,3.61-5.81,5.45q-6.54,6.24-13.1,12.44c-7.93,7.49-16.22,14.59-24.45,21.75-3.68,3.21-7.32,6.48-10.76,9.94-1.88,1.88-3.83,3.72-5.61,5.71q-3.35,3.75-6.67,7.53c-3.24,3.7-6.3,7.58-9.39,11.42-3.34,4.16-6.59,8.42-10.08,12.46-1.74,2-3.39,4.14-5.24,6l-3.37,3.48c-.75.77-1.47,1.61-2.27,2.34L1015,657c-2,1.86-4.19,3.56-6.28,5.33-3.74,3.18-7.63,6.19-11.45,9.26q-6.42,5.13-12.91,10.18s0,0,0,0q7.27-4,14.63-8a8.28,8.28,0,0,0,.64,6.77l0,.08q-5.05,5.45-10.12,10.87a75,75,0,0,0-8,9.55,7.78,7.78,0,0,0,0,7.91,7.91,7.91,0,0,0,2.81,2.82l1.87.79a8,8,0,0,0,4.17,0c2.26-.37,3.9-1.83,5.73-3.06L1000,707c2.1-1.42,4.16-2.9,6.23-4.37,4.65-3.29,9.16-6.78,13.68-10.26s9.13-7.11,13.59-10.8c1.93-1.6,3.9-3.17,5.77-4.84,2.17-1.94,4.46-3.8,6.53-5.84,3-2.92,6-5.77,8.85-8.8,3.13-3.33,6.24-6.64,9.22-10.09l.11-.12,2.81-2.06c4.46-3.27,8.79-6.74,13.1-10.2s8.9-7.09,13.37-10.62c8.07-6.38,16.25-12.63,24.18-19.19l1-.63c4.53-3,9-5.94,13.47-9,5.19-3.63,10.23-7.42,15.21-11.33,11.46-9,22.53-18.5,34-27.48,9.18-6.7,18.8-12.77,27.69-19.85,4.44-3.53,8.82-7.12,13.1-10.85,4.05-3.54,7.89-7.31,11.75-11.05s7.72-7.55,11.5-11.41,7.17-7.67,10.71-11.54c7.09-7.74,14.13-15.52,20.79-23.64q3.86-4.7,7.66-9.42,1.74-2.16,3.47-4.34c2.82-3.55,6.1-7.08,7.16-11.6a11.83,11.83,0,0,0-3-11.29,11.43,11.43,0,0,0-8.12-3.34,12.44,12.44,0,0,0-5.93,1.53Z" fill="#bedb39"/><path d="M1402.11,494.13a75.68,75.68,0,0,0-5.66,6.81c-5.6,6-11.81,11.53-17.83,17.11-8.21,7.63-16.29,15.41-24.49,23.05q-5.85,5.45-11.84,10.71c-3.75,3.31-7.7,6.4-11.61,9.52-4.18,3.22-8.4,6.38-12.65,9.52-4,3-8.13,5.86-12.14,8.86-4.65,3.47-9.35,6.88-13.92,10.45-4.25,3.33-8.57,6.59-12.75,10-9.6,7.88-19.14,15.83-28.79,23.65l-.94.72-.7.47c-9.14,6.05-18.32,12.05-27.63,17.85-9.57,6-19.27,11.68-29,17.32l-1.83,1.06a7,7,0,0,0-.9-.91l1.76-1.09c4.73-3,9.5-5.88,14.1-9l7.48-5.14c2.35-1.62,4.62-3.4,6.92-5.1,2.72-2,5.33-4.15,8-6.23,1.88-1.48,3.72-3,5.55-4.55,2.07-1.75,4.18-3.46,6.17-5.31,1-.94,2-1.88,3-2.87a32.86,32.86,0,0,0,3.24-3.82,9.86,9.86,0,0,0,1-1.53,21.71,21.71,0,0,0,1.09-2.65c.14-.92.27-1.85.36-2.78a10.07,10.07,0,0,0-1.31-4.9,8.8,8.8,0,0,0-3.55-3.4L1241,601c-.92-.15-1.84-.27-2.77-.36l-.53.06a10.11,10.11,0,0,0-2.9.47c-3.59,1-6.73,3.21-9.67,5.41-2.46,1.82-4.89,3.7-7.28,5.61q-7.23,5.76-14.44,11.54c-3.23,2.59-6.51,5.13-9.77,7.69l-2.4,1.76-.34-.22a9.15,9.15,0,0,0-9.2,0,46.19,46.19,0,0,0-5.45,4.52l-2,1.93c-1.55,1.55-3.09,3.11-4.63,4.66-1.29,1.29-2.58,2.58-3.89,3.85l-5.55,4.52c-3.65,3-7.43,5.8-11.16,8.66l.58-.45c-4,3-8,6-12.09,8.85l-7.64,5.3c-2.52,1.75-5.15,3.36-7.72,5-4.43,2.88-9,5.53-13.56,8.21-2.2,1.3-4.42,2.57-6.63,3.86-1.12.65-2.23,1.31-3.34,2-.7.42-1.41.86-2.11,1.3a17.73,17.73,0,0,0-2.38,1.86,12.68,12.68,0,0,0-2,2.86,6.24,6.24,0,0,0-.44.9l-2.08,1.17c-3,1.68-6,3.34-9,5.07l-5.73,3.35c-1.06.62-2.2,1.07-3.23,1.75a9.58,9.58,0,0,0-3.08,3.22,6.53,6.53,0,0,0-.91,3.37c.07.72.17,1.43.3,2.14a6.44,6.44,0,0,0,3.09,4,6.84,6.84,0,0,0,5.18.68c2.81-.72,5.58-1.56,8.38-2.31,2.49-.67,5-1.29,7.48-2,2.75-.81,5.48-1.63,8.21-2.53s5.37-1.9,8-2.92c4.49-1.72,8.88-3.69,13.22-5.73a8.52,8.52,0,0,0,.4.8,7.05,7.05,0,0,0,4.18,3.21,7.37,7.37,0,0,0,5.4-.7c.47-.23.94-.48,1.41-.74,1.42-.72,2.87-1.36,4.33-2,4.89-2,9.84-3.93,14.69-6.06l4.58-2a72.36,72.36,0,0,0,8.95-4.87c3.5-2.15,6.84-4.54,10.21-6.88,4-2.78,8-5.63,12-8.31,2.46-1.62,4.88-3.33,7.4-4.87l8.29-5.06c4.1-2.51,8.27-4.91,12.32-7.49l.37-.23c8.81-5,17.43-10.49,25.93-16,9.93-6.47,19.74-13.12,29.51-19.85q13-8.94,25.82-18,14.26-10.08,27.77-21.17c8.52-7,16.84-14.21,25.27-21.31,4.14-3.49,8.39-6.87,12.6-10.29,1.88-1.53,3.74-3.06,5.58-4.63,2-1.72,4.1-3.38,6-5.18,2.63-2.42,5.34-4.78,7.84-7.32l4.78-4.85c1.11-1.12,2.12-2.35,3.18-3.52,4.55-5.08,8.7-10.48,12.87-15.88,3.11-4,6.23-8,9.5-11.87l0,0c.41-.5.82-1,1.22-1.53a7.54,7.54,0,0,0,1-3.85,7.6,7.6,0,0,0-7.69-7.62,7.41,7.41,0,0,0-5.36,2.21Z" fill="#bedb39"/><path d="M798.92,367.68a10,10,0,0,0-4.57,5.95c-.65,2.35-.5,5.63,1,7.68l.86,1.56a8.41,8.41,0,0,0-1.6,5.32,23.6,23.6,0,0,0,1.15,6.57c.31.85.68,1.68,1,2.53.49,1.33,1,2.65,1.46,4,.88,2.47,1.76,4.93,2.62,7.4,2,5.71,4,11.42,6,17.12,1.75,4.9,3.84,9.68,5.76,14.5,1.18,3,2.63,5.82,4,8.7q2.22,4.71,4.43,9.43c.7,1.49,1.55,2.91,2.36,4.34q2.82,5.08,5.65,10.17c.83,1.49,1.61,3,2.52,4.47q2.68,4.23,5.36,8.46,4.17,6.57,8.26,13.17l5.4,8.71c1,1.56,1.77,3.22,2.65,4.83q2.22,4.14,4.46,8.28c.68,1.25,1.41,2.5,2,3.78q3.64,7.59,7.3,15.17c.48,1,1,2,1.42,3q3.21,9.32,7.22,18.34,2.79,6.27,6.12,12.24,7.22,17.24,14.56,34.42c.54,1.31,1.08,2.63,1.59,4,.12.31.23.63.35,1,.48,1.8,1,3.6,1.5,5.38A10.7,10.7,0,0,0,913,625.55l2.55-1.08a10.92,10.92,0,0,0,2-1.49c.64.91,1.27,1.83,1.92,2.74,1.37,1.93,2.7,3.91,4,5.9a59.86,59.86,0,0,1,4.66,7.91,0,0,0,1,0,0,0,63.59,63.59,0,0,0-4.9-15.66q-1.25-2.91-2.55-5.78a15.16,15.16,0,0,0-.14-7.51,20.86,20.86,0,0,0-.77-2.13c-.3-.82-.59-1.64-.91-2.46-1.07-2.77-2.23-5.51-3.46-8.22l-2.79-6.15q-2.39-6.37-4.88-12.71c-2.19-5.52-4.57-11-6.89-16.43a154.68,154.68,0,0,0-9.72-34.35c-3-7.31-6.49-14.36-10-21.42-4.61-9.22-9.61-18.25-14.39-27.38l-2-3.79a334.18,334.18,0,0,0-19-42.93c-4.71-8.93-10.07-17.51-15.25-26.18-.51-.87-1.13-1.69-1.7-2.53l-.17-.25-1.77-3.93c-2-4.52-4.18-9-6.34-13.43-2.47-5.09-5.06-10.12-7.88-15a10,10,0,0,0-8.67-4.91,9.77,9.77,0,0,0-5,1.34Z" fill="#bedb39"/><path d="M717.51,565.82a7.43,7.43,0,0,0-5,5,7.25,7.25,0,0,0,1.86,7c1,.8,1.94,1.59,3,2.3a18.84,18.84,0,0,0,3.09,1.52c.93.43,1.85.9,2.77,1.35l1.25.61c.29,2.06.75,4.1,1.2,6.12.62,2.82,1.31,5.62,2,8.42.41,1.67.84,3.34,1.26,5s.89,3.57,1.38,5.35c.56,2,1.28,3.89,2,5.81a52.94,52.94,0,0,0,4.44,9.38,40.14,40.14,0,0,0,7.86,8.7,93,93,0,0,0,19.1,12.34c4.45,2.27,9.08,4.18,13.56,6.38q9.15,4.5,18.41,8.76c4.91,2.26,9.73,4.78,14.52,7.27q10.58,5.49,20.64,11.87c4.61,2.93,9.23,5.9,13.68,9.07l8.37,6c4.06,2.89,8.12,5.79,12.2,8.66,3.8,2.67,7.56,5.4,11.41,8,2.94,2.94,5.88,5.87,9,8.64l6.92,6.16c1.77,1.58,3.74,3,5.6,4.42,8,6.33,16.49,12.14,24.67,18.31,1.15.91,2.31,1.82,3.53,2.62a15.29,15.29,0,0,0,8.32,2.66c3.44-.07,7.24-1.12,9.5-3.93a13.55,13.55,0,0,0,3.2-5.62,15.37,15.37,0,0,0,.14-7.26,17.33,17.33,0,0,0-2.72-6.15,37.58,37.58,0,0,0-4.51-5.47,56.62,56.62,0,0,0-5.71-4.66c-1.65-1.25-3.31-2.47-5-3.64-4.39-3-9.1-5.64-13.73-8.3l-2.34-1.34c.22-.52.44-1,.65-1.56a15.37,15.37,0,0,0,.53-3.37,14.63,14.63,0,0,0-.81-6.35,26.09,26.09,0,0,0-3-6.07,41.87,41.87,0,0,0-8.59-9.28,94.11,94.11,0,0,0-21-12.59c-7.37-3.36-14.86-6.46-22.31-9.65-2-.85-4-1.63-6-2.55l-7.11-3.39-2.29-1.08-3.41-2.55c-1.51-1.57-3-3.14-4.55-4.7-3.55-3.63-7-7.39-10.72-10.88l-14.75-13.85c-1.14-1.07-2.39-2-3.59-3L797.42,609c-2-1.67-4-3.41-6.14-5l-6.47-4.7a198.41,198.41,0,0,0-19.15-14.62,161.16,161.16,0,0,0-14.4-8.48c-2.42-1.28-4.91-2.43-7.4-3.55-2.08-.93-4.18-1.9-6.31-2.69l-6.88-2.54c-1-.37-2-.71-3-1.06a26.24,26.24,0,0,0-3.47-1c-1-.15-1.91-.27-2.87-.37l-.36,0a11.53,11.53,0,0,0-3.43.81ZM734.3,602c-1.34-2.64-2.7-5.26-4.06-7.88-1.68-3.24-3.26-6.51-4.75-9.84l3,1.43,1.51.73a11.12,11.12,0,0,0-.35,2.37,13.2,13.2,0,0,0,1.86,7,16,16,0,0,0,2.11,3,36.66,36.66,0,0,0,4.42,4.39c.75.65,1.52,1.27,2.3,1.88l-.12-.09c9.29,7.28,18.72,14.34,28.2,21.36,1.74,1.29,3.55,2.49,5.32,3.73l4.71,3.29h0c-3.5-1.08-7-2.09-10.49-3.27-2.88-1-5.72-2.08-8.53-3.23A66,66,0,0,1,747.15,620a33.58,33.58,0,0,1-4.9-4.93,90.84,90.84,0,0,1-8-13.13Zm9.67-7.82h0Z" fill="#bedb39"/></g></svg>